<svg xmlns="http://www.w3.org/2000/svg" width="33.469" height="33.189" viewBox="0 0 33.469 33.189">
  <g id="approve-icon" transform="translate(0)">
    <path id="Path_38467" data-name="Path 38467" d="M16.7,0A3.827,3.827,0,0,1,19,.72c.9.572,1.906,1.7,3.162,2.413,1.77,1.008,5.011-.379,6.673,2.1a6.5,6.5,0,0,1,1.089,3.7,6.523,6.523,0,0,0,1.525,3.952c2.045,2.7,2.47,4.5,1.416,6.381-.716,1.277-2.231,1.988-2.579,2.8-.746,1.724.079,3.023-.942,5.03a5.354,5.354,0,0,1-3.268,2.781c-1.226.4-2.451-.174-3.44.237-1.727.727-3,2.413-4.374,2.838a5.3,5.3,0,0,1-3.17,0c-1.362-.425-2.647-2.111-4.374-2.838-.983-.411-2.214.161-3.44-.237a5.354,5.354,0,0,1-3.227-2.781c-1.027-2.007-.2-3.306-.948-5.03-.349-.817-1.863-1.522-2.593-2.8-1.054-1.876-.626-3.677,1.419-6.381A6.523,6.523,0,0,0,3.458,8.926a6.478,6.478,0,0,1,1.089-3.7c1.67-2.476,4.924-1.089,6.681-2.094C12.5,2.42,13.5,1.295,14.4.723A3.827,3.827,0,0,1,16.7,0Z" transform="translate(0.043 0.002)" fill="#578d64" fill-rule="evenodd"/>
    <path id="Path_38468" data-name="Path 38468" d="M39.69,38.83a7.353,7.353,0,0,0,1.25,2.3c2.045,2.7,2.47,4.5,1.416,6.381-.716,1.277-2.231,1.988-2.579,2.8-.746,1.724.079,3.023-.942,5.03a5.36,5.36,0,0,1-3.268,2.781c-1.226.395-2.451-.174-3.44.237-1.727.727-3,2.41-4.374,2.838a5.3,5.3,0,0,1-3.17,0c-1.362-.428-2.647-2.111-4.374-2.838-.983-.411-2.214.158-3.44-.237a5.354,5.354,0,0,1-3.225-2.781A4.943,4.943,0,0,1,13,53.463Z" transform="translate(-9.448 -28.254)" fill="#7cb289" fill-rule="evenodd"/>
    <path id="Path_38469" data-name="Path 38469" d="M34.8,25.5a9.905,9.905,0,1,1-9.905,9.905A9.905,9.905,0,0,1,34.8,25.5Z" transform="translate(-18.1 -18.555)" fill="#fff" fill-rule="evenodd"/>
    <path id="Path_38470" data-name="Path 38470" d="M44.06,47.687,46,49.514l3.889-3.955c.384-.389.626-.7,1.089-.215l1.544,1.577c.5.5.477.793,0,1.261l-5.646,5.556c-1,.986-.817,1.049-1.852.033l-3.56-3.527a.449.449,0,0,1,.033-.705l1.8-1.855a.461.461,0,0,1,.765,0Z" transform="translate(-30.047 -32.813)" fill="#303030" fill-rule="evenodd"/>
  </g>
</svg>
