<svg xmlns="http://www.w3.org/2000/svg" xmlns:xlink="http://www.w3.org/1999/xlink" width="41.963" height="35.21" viewBox="0 0 41.963 35.21">
  <defs>
    <clipPath id="clip-path">
      <rect id="Rectangle_2988" data-name="Rectangle 2988" width="38.192" height="34.813" fill="#06560c"/>
    </clipPath>
  </defs>
  <g id="Group_40739" data-name="Group 40739" transform="translate(0 -0.426)">
    <g id="Group_40738" data-name="Group 40738" transform="translate(0 0.822)">
      <g id="Group_40738-2" data-name="Group 40738" clip-path="url(#clip-path)">
        <path id="Path_38463" data-name="Path 38463" d="M38.192,7.867a9.013,9.013,0,0,1-.32,1.026c-.136.308-.212.642-.33.958-.247.665-.478,1.336-.714,2-.2.577-.4,1.156-.6,1.738-.278.838-.581,1.666-.879,2.5a11.728,11.728,0,0,1-.843,2.063,2.562,2.562,0,0,1-1.5,1.227,4.525,4.525,0,0,1-1.317.171q-9.836-.005-19.673,0c-.393,0-.393,0-.318.417.167.926.314,1.856.427,2.79.026.214.112.27.322.27q9.55-.007,19.1-.005a4.054,4.054,0,0,1,1.154.137,1.421,1.421,0,0,1,.9,1.269,2.492,2.492,0,0,1-.4,1.6,1.365,1.365,0,0,1-1.074.5c-.262.019-.526.007-.789.007q-9.872,0-19.745.005a2.524,2.524,0,0,1-1.535-.458A3.072,3.072,0,0,1,9.119,24.9c-.109-.227-.19-.466-.3-.69a5,5,0,0,1-.3-.945c-.158-.578-.227-1.18-.35-1.768-.182-.872-.329-1.751-.509-2.623-.157-.762-.3-1.53-.434-2.3-.158-.917-.318-1.834-.5-2.746-.187-.946-.342-1.9-.549-2.84-.148-.67-.258-1.35-.384-2.026-.141-.758-.3-1.511-.436-2.27-.12-.686-.272-1.365-.39-2.05-.033-.191-.123-.234-.3-.232-.876.009-1.754-.018-2.629.012A1.611,1.611,0,0,1,.693,3.8,3,3,0,0,1,.029,1.4,1.625,1.625,0,0,1,1.2.045,1.59,1.59,0,0,1,1.793.011C3.3.009,4.805,0,6.311.025A1.9,1.9,0,0,1,7.867.89a4.523,4.523,0,0,1,.643,1.95c.129.827.194,1.666.393,2.482a.5.5,0,0,1,.024.164c-.015.146.062.177.185.174.143,0,.287,0,.43,0l21.442-.008c1.641,0,3.282-.029,4.923.014a2.594,2.594,0,0,1,1.815.679,1.207,1.207,0,0,1,.382.638c.014.071.009.162.086.212Zm-16.316,1.2V9.023H13.249c-1.075,0-2.151,0-3.226-.011-.2,0-.255.074-.231.25a1.194,1.194,0,0,0,.031.162c.154.549.235,1.114.337,1.672.155.85.337,1.7.485,2.547.123.709.3,1.408.393,2.124.019.15.061.243.262.243q9.917-.022,19.835.04a.262.262,0,0,0,.3-.2c.048-.134.079-.274.133-.4.306-.723.562-1.465.835-2.2.219-.59.446-1.178.671-1.766.272-.712.559-1.417.8-2.141.092-.28.1-.278-.189-.278H21.876" transform="translate(0 0)" fill="#06560c"/>
        <path id="Path_38464" data-name="Path 38464" d="M652.161,715.03a1.142,1.142,0,0,0-.436-.09,3.361,3.361,0,0,1-1.287-.549,3.537,3.537,0,0,1-.982-.98,3.236,3.236,0,0,1-.537-1.275,3.69,3.69,0,0,1,.2-2.066,3.4,3.4,0,0,1,1.621-1.805,3.548,3.548,0,0,1,2.455-.336,3.687,3.687,0,0,1,1.567.709,3.387,3.387,0,0,1,.972,1.255,3.492,3.492,0,0,1,.345,1.862,3.8,3.8,0,0,1-.5,1.491,3.385,3.385,0,0,1-1.151,1.194,3.244,3.244,0,0,1-1.511.543.274.274,0,0,0-.18.048Z" transform="translate(-623.531 -680.217)" fill="#06560c"/>
        <path id="Path_38465" data-name="Path 38465" d="M238.173,712.786a3.626,3.626,0,0,1-3.624-3.614,3.626,3.626,0,0,1,7.251.023,3.653,3.653,0,0,1-3.627,3.59" transform="translate(-225.395 -678.068)" fill="#06560c"/>
      </g>
    </g>
    <circle id="Ellipse_2831" data-name="Ellipse 2831" cx="7" cy="7" r="7" transform="translate(27.963 0.426)" fill="#cf0b0b"/>
  </g>
</svg>
