<svg id="Group_4195" data-name="Group 4195" xmlns="http://www.w3.org/2000/svg" xmlns:xlink="http://www.w3.org/1999/xlink" width="130.886" height="92.404" viewBox="0 0 130.886 92.404">
  <defs>
    <clipPath id="clip-path">
      <rect id="Rectangle_1484" data-name="Rectangle 1484" width="130.886" height="92.404" fill="none"/>
    </clipPath>
  </defs>
  <g id="Group_4194" data-name="Group 4194" clip-path="url(#clip-path)">
    <path id="Path_11186" data-name="Path 11186" d="M149.741,43.854a2.123,2.123,0,0,0,.011-.7c-.017-.116-.034-.215-.051-.3A43.6,43.6,0,0,0,127.969,7.429l.123-.052c-.076,0-.116.016-.128.048q-.648-.375-1.311-.727c.09-.046.193-.09.3-.135.529-.223,1.048-.5-.7-1.341.812.6.737.891.315.949a2.3,2.3,0,0,1-.831-.085,4.869,4.869,0,0,1-.982-.391.276.276,0,0,1,.041.065c-.25-.118-.5-.236-.752-.349.478.047.467-.112.179-.346a4.379,4.379,0,0,0-.68-.43,6.053,6.053,0,0,0-.961-.392,6.417,6.417,0,0,1,.761.372,3.1,3.1,0,0,1,.476.362c.2.189.245.333.135.4q-.766-.343-1.548-.656a.958.958,0,0,0,.388-.032c.113-.116-.041-.3-.361-.527-.16-.113-.362-.238-.591-.369a7.826,7.826,0,0,0-.766-.4c-.557-.256-1.172-.532-1.746-.784-.58-.232-1.113-.456-1.49-.657-.177-.039-.332-.07-.469-.095s-.259-.031-.365-.038a2.049,2.049,0,0,0-.487.016,2.425,2.425,0,0,0-.628.264,1.258,1.258,0,0,0-.386-.307,4.922,4.922,0,0,0-.6-.3,3.118,3.118,0,0,1-1.017-.571c-.384-.005-.738-.043-1.077-.064s-.658-.056-.965-.1c-.613-.087-1.176-.217-1.745-.3s-1.136-.191-1.751-.229c-.188-.007-.384-.007-.582,0a.089.089,0,0,1-.034,0,11.166,11.166,0,0,0-1.405.112c-.125-.064-.174-.111-.171-.145h-.21l.172.07A11.448,11.448,0,0,1,104.18.5c-.246.007-.5.029-.751.047.219.013.435.03.646.058.518.072,1.01.161,1.479.257.234.051.463.094.687.154l.656.187,1.475.434q-1.059-.053-2.132-.055c-.039-.008-.081-.018-.117-.024a.585.585,0,0,0-.362.028,43.417,43.417,0,0,0-26.1,8.962l-.155-.124c-.017.048-.034.152-.075.3q-1,.779-1.961,1.614a3.975,3.975,0,0,0-1.623,1.375c-.055.088-.1.174-.145.259q-1.041,1.015-2.014,2.1c.012-.094,0-.15-.071-.121a.389.389,0,0,0-.025.229q-1.043,1.169-2,2.411c-.105-.039-.022-.327.519-1.248q-.347.491-.683.943c-.221.3-.454.586-.653.882s-.41.573-.613.848l-.3.408-.152.2-.142.205c-.377.546-.762,1.069-1.139,1.6L67.33,24.086c.558-.583.678-.882,1.368-1.746-.243.41-.474.876-.72,1.36-.119.245-.25.49-.364.749l-.338.791c-.155.366-.316.733-.466,1.1q-.77,1.6-1.409,3.279l-.117-.31a6.092,6.092,0,0,0-.41.652c-.139.256-.263.555-.4.88s-.272.68-.412,1.057-.248.787-.375,1.207a48,48,0,0,0-1.2,5.456c.2-.771.4-1.538.612-2.3.1.135.238.036.389-.159q-.4,1.863-.629,3.782l-.092.189c-.092.186-.181.362-.262.54a3.48,3.48,0,0,0-.191.551,3.757,3.757,0,0,0-.078,1.4c.316-1.2.416-1.354.472-1.231q-.1,1.173-.143,2.364c-.2,0-.391.032-.476.6.179,1.212.331-.875.472-.5-.009.285-.014.571-.018.857a5.3,5.3,0,0,0-.153.539,2.775,2.775,0,0,0-.043.594,2.233,2.233,0,0,0,.2.8l.014.035q.035,1.087.122,2.161c-.01.05-.018.1-.029.151l-.548-1.444a74.153,74.153,0,0,0,2.571,11.325l-.686-.177a10.616,10.616,0,0,1,.5,1.07c.075.188.145.377.209.563s.136.365.19.54c.225.7.307,1.294.115,1.518-.2-.548-.395-1.031-.59-1.463l-.146-.315-.131-.3c-.087-.2-.173-.381-.258-.557-.171-.351-.341-.666-.5-.956s-.3-.563-.442-.821a10.352,10.352,0,0,1-.708-1.514,6.426,6.426,0,0,1-.281-1.848c.293.295.146.145.224-.187a12.2,12.2,0,0,1-.987-2.276,12.844,12.844,0,0,1-.322-1.533,7.787,7.787,0,0,1-.085-.826c-.007-.281,0-.565.015-.851l.431.826a43.532,43.532,0,0,1-.169-5.5q.02-.688.04-1.366.047-.677.092-1.339c.038-.884.142-1.738.2-2.56-.192.456-.328.425-.4.09a3.78,3.78,0,0,1-.059-.707,8.723,8.723,0,0,1,.086-1.012c.527-2.244.13.724.562-.179a2.268,2.268,0,0,0,.29-.594c.041-.118.077-.244.111-.378s.075-.272.109-.418a19.519,19.519,0,0,0,.319-1.957c.112-.688.208-1.393.305-2.026a12.3,12.3,0,0,1,.381-1.569c-.007.133.1-.054.252-.362s.38-.727.571-1.074c.393-.693.687-1.077.292.357.183-.406.344-.8.49-1.192s.306-.755.438-1.121.263-.719.385-1.065.267-.669.4-.99.265-.63.4-.929a7.9,7.9,0,0,1,.466-.842,7.761,7.761,0,0,1,.536-.759q.144-.179.3-.346c.108-.109.225-.212.343-.311a4.283,4.283,0,0,1,.134-.931,4.863,4.863,0,0,1,.495-1.292l.42.369.365-1.207a6.226,6.226,0,0,1,1.114-1.185c.382-.32.745-.6,1.122-.872a7.408,7.408,0,0,0,2.1-2.128,5.806,5.806,0,0,1-.593.647c-.225.2-.428.356-.563.283-.124-.252.6-1.224,1.215-2.118.637-.872,1.2-1.649.64-1.563-.4.57-.812,1.124-1.176,1.717.178-.828-1.6,1.182-1.476.567A47.649,47.649,0,0,0,68.5,18.381l-.429-.167c.32-.312.628-.631.955-.933.053-.47-.018-.571-.181-.439a1.89,1.89,0,0,0-.3.355c-.114.169-.245.38-.387.613l-.457.749c-.162.26-.335.522-.492.784A5.121,5.121,0,0,1,66.2,20.6l.292.232c-.186.241-.331.473-.471.676l-.375.55c-.224.326-.4.574-.542.769-.273.4-.407.577-.537.732s-.244.287-.461.6c-.109.155-.242.355-.415.624s-.357.624-.6,1.07c-.045.434-.1.859-.133,1.291.006.1.27-.767.6-1.631.082-.216.167-.431.252-.63a5.382,5.382,0,0,1,.277-.522c.18-.3.344-.465.46-.387-.107.307-.227.624-.356.948l-.371,1.013-.4,1.049c-.135.355-.249.724-.374,1.088l-.363,1.1c-.112.368-.2.741-.3,1.107s-.175.729-.249,1.084-.111.712-.15,1.054c-.054-.381-.118-.769-.161-1.154l-.089-.932a4.668,4.668,0,0,1-.641,1.691c-.205.406-.439.864-.663,1.391a11.191,11.191,0,0,0-.514,1.807l.415-1.114.208-.554c.068-.184.153-.364.229-.546a7.367,7.367,0,0,1-.094,1.944q-.045.281-.1.577l-.06.3-.052.308c-.072.415-.154.845-.241,1.284l-.132.664q-.051.337-.1.676c-.066.452-.128.906-.18,1.352-.012.111-.024.223-.037.333s-.011.222-.017.332c-.01.22-.016.437-.019.651,0,.427.007.839.041,1.227.067-.839.136-1.676.407-1.791a5.561,5.561,0,0,1-.008,1.751c-.068.722-.151,1.5-.248,2.079-.238-.114-.377-.628-.46-1.328-.021-.175-.039-.361-.053-.555s-.008-.4-.009-.6c0-.413.007-.845.017-1.268.007-.211.005-.42.018-.623s.026-.4.038-.587c.022-.376.036-.715.034-.992,0-.554-.076-.86-.285-.7-.069.444-.118.883-.15,1.314q-.024.323-.038.64c-.01.211-.017.42-.006.628.029.83.083,1.62.168,2.36.1.742.2,1.434.258,2.077a9.047,9.047,0,0,1,.077,1.777c-.195-.579-.4-1.164-.584-1.756.06.576.141,1.149.212,1.721l.027-.507a2.89,2.89,0,0,1,.21,1.541,11.046,11.046,0,0,0,.087,2.025l-.621-.868c.035.427.051.856.1,1.282l.154,1.278.108-.343c.356,2.041.8,3.914,1.2,5.747l.338,1.358c.113.451.2.907.333,1.351.25.891.452,1.8.73,2.7-.094-.359-.206-.71-.283-1.072L61.3,60.2a11.163,11.163,0,0,1,.877,2.236,1.207,1.207,0,0,0-.048-.624c-.034-.145-.078-.3-.124-.47s-.085-.34-.127-.51c-.171-.676-.325-1.288-.152-1.236.13.423.241.8.336,1.148l.133.5c.046.157.089.306.132.449.166.575.285,1.067.4,1.562.053.249.125.492.2.748s.149.523.237.813.185.6.3.947.278.71.451,1.125c.182.113.112-.5.191-.818s.3-.349,1.051.885c-.263.011-.161.6-.12,1s-.039.616-.727-.119a6.165,6.165,0,0,1,1.081,1.87,3.277,3.277,0,0,0,1.1,1.408,5.766,5.766,0,0,1-.508-.843c-.094-.709.815.739,1.253,1.274.191.565.321,1.024.532,1.542a8.393,8.393,0,0,0,1.075,1.848c.23.243.447.5.687.73l.713.7.712.7c.243.228.494.447.741.67.057.17-.151.111-.151.111.348.327.689.665,1.034,1s.709.655,1.058.985l.521.5c.176.162.358.316.535.474l1.054.931c.347.3.71.578,1.054.856s.684.545,1.024.787a22.231,22.231,0,0,0,1.952,1.236,2.848,2.848,0,0,0,.686.041c.049-.026.03-.087-.109-.208s-.4-.3-.819-.592a7.9,7.9,0,0,1,1.162.553,11.764,11.764,0,0,1,1.15.779c.386.272.771.555,1.142.839s.728.57,1.084.8c-.507-.057-.995-.159-1.5-.245A73.312,73.312,0,0,0,89.445,90a25.136,25.136,0,0,0,7.084,1.9l-.711-.549.761.138.76.118c.5.08,1,.168,1.49.259s.976.144,1.449.219l.7.109.343.054.34.037,1.3.137c.418.042.82.081,1.2.083a14.279,14.279,0,0,0,2-.062c-1.5-.341-.964-.425.032-.451.5-.035,1.118-.059,1.665-.088.274-.016.53-.027.744-.052a3.955,3.955,0,0,0,.492-.088c-.188,0-.383,0-.582.006s-.4,0-.61,0c-.414,0-.84.015-1.268.034s-.855.027-1.273.034l-1.207.031c-.384.019-.743.01-1.067.005l-.852-.015a4.807,4.807,0,0,1-.7-.048l.1.055c-.229,0-.457-.011-.685-.025l-.686-.039c-.457-.028-.916-.049-1.374-.084l-1.37-.148c-.457-.051-.918-.092-1.371-.173l.178-.531c-.139.282-.656.287-1.341.154-.171-.033-.353-.075-.541-.123s-.38-.118-.577-.184c-.393-.135-.8-.289-1.194-.439-.2-.077-.393-.147-.579-.227l-.536-.232c-.342-.145-.648-.268-.9-.348-.5-.16-.761-.151-.6.19-1.471-.489-1.866-1.183-1.562-1.377L88,88.125l-.5-.179-1.007-.36c-.679-.227-1.329-.52-1.993-.789-.324-.419.74-.495,1.16-.234.186.093.386.2.607.285s.454.177.7.268c.485.177.992.379,1.5.561a14.72,14.72,0,0,1,1.477.592,6.931,6.931,0,0,1,1.215.7c.7.066.449-.179.386-.334-.032-.077-.017-.133.184-.116a3.375,3.375,0,0,1,.461.084c.106.025.228.056.368.093l.484.113c.582.249,1.186.494,1.809.706.628.193,1.269.374,1.915.544.65.154,1.31.271,1.963.4.164.029.326.062.49.087l.491.063.973.122c.322.036.64.087.957.109l.938.071c.617.044,1.214.11,1.789.126s1.124.064,1.643.112,1.008.064,1.46.123c-.818-.169-1.642-.154-.619-.471.811.118,1.631.265,2.454.329a11.036,11.036,0,0,0,1.339-.268c.4-.1.749-.245,1.086-.352a5.348,5.348,0,0,1,2.02-.331c.232-.213-.663-.121-1.784-.073a21.4,21.4,0,0,1-3.1.041,2.814,2.814,0,0,1,1.449-.536c.126-.012.254-.018.382-.019s.257-.01.388-.009c.261,0,.525.014.792.03a4.56,4.56,0,0,0,3.1-.549c.362-.44-.9-.164-2.066.069-1.178.176-2.251.315-1.461-.249l1.346-.088c.447-.044.893-.1,1.342-.152a4.071,4.071,0,0,0-1.512-.094,11.979,11.979,0,0,0-1.511.239,6.124,6.124,0,0,1-1.311.164,1.188,1.188,0,0,1-.8-.231q1.976-.127,3.9-.425a.854.854,0,0,1,.1.013.671.671,0,0,0,.09-.046,43.292,43.292,0,0,0,7.54-1.914c-.035.288-.632.712-1.389,1.111-.437.208-.924.409-1.379.576-.228.083-.447.161-.65.221s-.39.1-.548.128a12.278,12.278,0,0,0,4.2-1.06l-1.019.22-.507.109-.514.085c.183-.056.351-.111.505-.165s.292-.122.42-.181a6.68,6.68,0,0,0,.651-.344,7.931,7.931,0,0,0,.881-.638,5.733,5.733,0,0,1,.878-.631q1.582-.625,3.1-1.369c.176-.031.23.022.246.115.032.2-.136.552.339.458l1.3-.849c.212-.145.234-.18.166-.163-.135.036-.666.21-.85-.046.56-.3,1-.571,1.409-.789s.792-.4,1.177-.616.795-.448,1.279-.742c.121-.074.248-.149.377-.235l.4-.281c.278-.2.58-.42.913-.671-.362.322-.648.6-.9.85-.127.125-.242.246-.359.356l-.349.312a8.347,8.347,0,0,1-.756.591c-.143.1-.3.2-.47.3s-.369.195-.584.3l.761.121c.516-.414.986-.822,1.437-1.231s.854-.861,1.278-1.3.828-.925,1.27-1.418c.181-.21.374-.414.565-.635.362-.3.716-.605,1.068-.915l.237.062a11.135,11.135,0,0,1,.855-.937l.9-.923.96-1.059A43.459,43.459,0,0,0,149.764,45.2c0-.45-.009-.9-.022-1.345M120.8,3.872a2.033,2.033,0,0,1,.609.338c.128.092.257.187.391.27q-.751-.289-1.514-.551a.6.6,0,0,1,.514-.057" transform="translate(-34.478 -0.111)" fill="#fde4c5"/>
    <path id="Path_11187" data-name="Path 11187" d="M73.912,61.385l-.14.356-.124.362-.49,1.448.59-1.123.295-.558.321-.545.237-.87c.081-.29.152-.586.251-.869l.564-1.729c-.417.938-.866,1.857-1.222,2.817Z" transform="translate(-42.853 -33.89)" fill="#fde4c5"/>
    <path id="Path_11188" data-name="Path 11188" d="M106.8,16.966a7.3,7.3,0,0,0,.744-.519c.24-.184.468-.4.732-.61l.879-.714c-.978.639-2.123,1.471-3.071,2.219l-.051.043c.119-.061.234-.123.343-.183.15-.077.29-.155.423-.236" transform="translate(-62.11 -8.859)" fill="#fde4c5"/>
    <path id="Path_11189" data-name="Path 11189" d="M105.732,20.647l.031.014.093-.078-.124.063" transform="translate(-61.935 -12.058)" fill="#fde4c5"/>
    <path id="Path_11190" data-name="Path 11190" d="M97.809,23.786l1.537-1.365c.939-.787,1.553-1.406,1-1.647-.406.34-.775.658-1.067.928l-.227.216c-.067.071-.127.138-.181.2a2.078,2.078,0,0,0-.23.31l.067-.2s-.363.42-.83,1c-.239.286-.483.635-.722.991s-.474.72-.672,1.06a12.853,12.853,0,0,1,1.329-1.493" transform="translate(-56.515 -12.168)" fill="#fde4c5"/>
    <path id="Path_11191" data-name="Path 11191" d="M108.808,17.281a5.514,5.514,0,0,0-1.29.91c-.2.156-.4.319-.592.478l-.277.234c-.086.079-.166.158-.241.232-.3.3-.5.531-.492.62a2.95,2.95,0,0,0,.52-.408l.308-.287.334-.281c.447-.365.888-.663,1.145-.526.535-.362.733-.488.73-.542s-.188,0-.382.041-.386.106-.409.058.123-.2.645-.528" transform="translate(-62.043 -10.094)" fill="#fde4c5"/>
    <path id="Path_11192" data-name="Path 11192" d="M135.263,4.386a.518.518,0,0,0,.015-.161c-.214.128-.178.166-.015.161" transform="translate(-79.155 -2.475)" fill="#fde4c5"/>
    <path id="Path_11193" data-name="Path 11193" d="M129.229,8.987c.212-.092.479-.2.814-.35l-.019-.009c-.369.135-.71.254-1.043.391l-.435.171a1.535,1.535,0,0,0,.169-.031,3.5,3.5,0,0,0,.514-.173" transform="translate(-75.299 -5.054)" fill="#fde4c5"/>
    <path id="Path_11194" data-name="Path 11194" d="M124.426,9.92a1.173,1.173,0,0,1-.388-.019c-.292-.046-.628-.126-2,.624l-.522.889c.733-.453,1.332-.785,1.863-1.053.377-.169.719-.309,1.05-.441" transform="translate(-71.179 -5.784)" fill="#fde4c5"/>
    <path id="Path_11195" data-name="Path 11195" d="M132.876,5.479c.323-.143.685-.276,1.081-.451-.364.1-.733.2-1.094.312l-1.08.358a1.77,1.77,0,0,1,.617-.454c.135-.069.28-.134.431-.2s.31-.112.465-.167c.621-.212,1.2-.4,1.319-.658-.147-.147-1.309.124-1.708.137-.1.426-.728.693-1.217.913-.544.246-.906.436-.165.75.148-.054.3-.11.458-.172.277-.108.572-.229.895-.371" transform="translate(-76.798 -2.448)" fill="#fde4c5"/>
    <path id="Path_11196" data-name="Path 11196" d="M154.272,1.331c.164.007.362.005.584,0a5.8,5.8,0,0,0-.584,0" transform="translate(-90.368 -0.776)" fill="#fde4c5"/>
    <path id="Path_11197" data-name="Path 11197" d="M160.658,1q-.447.041-.916.108l.012.007.237-.007c.348-.012.71-.035,1.079-.034s.742-.019,1.112-.039c.114-.005.228-.013.342-.021C162.2,1,161.876.99,161.536.986q-.428,0-.878.017" transform="translate(-93.572 -0.577)" fill="#fde4c5"/>
    <path id="Path_11198" data-name="Path 11198" d="M174.435.1c.078.007.128.011.158.012h.034c.009-.019-1.594-.218-1.61-.032.473,0,.946.016,1.418.021" transform="translate(-101.348 0)" fill="#fde4c5"/>
    <path id="Path_11199" data-name="Path 11199" d="M150.5,1.323a1.6,1.6,0,0,1,.655.138c.093.054.11.118.025.186a2.113,2.113,0,0,1-.59.235l-1.151-.329-.665.313c-.221.1-.436.227-.653.34l-1.286.689a6.569,6.569,0,0,1,1.555-.513,6.187,6.187,0,0,1,.783-.12l.737-.074a7.1,7.1,0,0,0,1.19-.2.765.765,0,0,0,.6-.486l1.125.2-.633-.4c-.262.007-.518.012-.758.013-.346,0-.66,0-.935,0" transform="translate(-86.01 -0.765)" fill="#fde4c5"/>
    <path id="Path_11200" data-name="Path 11200" d="M144.684,2.937l0,0c-.207.049-.413.1-.617.159l-.942.281c.457-.1.794-.183,1.043-.258a2.579,2.579,0,0,0,.512-.179" transform="translate(-83.841 -1.719)" fill="#fde4c5"/>
    <path id="Path_11201" data-name="Path 11201" d="M148.184,1.362c.16-.038.318-.08.478-.114l.483-.093c-.229-.123-.461-.25-.693-.367-1.71.25-1.566.419-1.458.6.053.09.094.183-.1.291.112-.027.224-.053.336-.082Z" transform="translate(-86.046 -0.461)" fill="#fde4c5"/>
    <path id="Path_11202" data-name="Path 11202" d="M94.794,33.9c-.024.041-.05.07-.076.109.151-.189.217-.29.076-.109" transform="translate(-55.483 -19.799)" fill="#fde4c5"/>
    <path id="Path_11203" data-name="Path 11203" d="M215.969,205.979c-.567.2-1.029.453-1.1.8a5.665,5.665,0,0,0,1.223-.594c.242-.135.5-.276.759-.4.186-.1.374-.189.563-.268-.173.064-.363.128-.563.193-.295.085-.6.174-.886.274" transform="translate(-125.866 -120.382)" fill="#fde4c5"/>
    <path id="Path_11204" data-name="Path 11204" d="M221.016,205.389c.079-.029.155-.058.225-.086-.075.026-.15.055-.225.086" transform="translate(-129.465 -120.261)" fill="#fde4c5"/>
    <path id="Path_11205" data-name="Path 11205" d="M216.4,213.224l-.028-.1c-.122.088-.289.195-.475.307.169-.061.337-.126.5-.2" transform="translate(-126.465 -124.841)" fill="#fde4c5"/>
    <path id="Path_11206" data-name="Path 11206" d="M216.859,212.479l.075.257c.249-.2.311-.318-.075-.257" transform="translate(-127.03 -124.455)" fill="#fde4c5"/>
    <path id="Path_11207" data-name="Path 11207" d="M207.046,215.083l2.1-.662c.092.366.135.546-1.179.944a2.544,2.544,0,0,0,.941-.3c.4-.172.817-.43,1.129-.587l-.486.149a10.742,10.742,0,0,1,1.163-.761,10.427,10.427,0,0,1-2.484.5c-.671.091-1.117.229-1.181.716" transform="translate(-121.282 -125.275)" fill="#fde4c5"/>
    <path id="Path_11208" data-name="Path 11208" d="M202.1,216.932l-1.018.553c-.171.092-.341.187-.514.275l-.523.251c.206-.051.49-.1.777-.2s.589-.195.84-.3c.5-.212.806-.432.437-.579" transform="translate(-117.181 -127.072)" fill="#fde4c5"/>
    <path id="Path_11209" data-name="Path 11209" d="M193.617,218a1,1,0,0,1-.393.149,11.749,11.749,0,0,0-1.339.374c1.273-.07,1.545-.185,1.667-.343s.109-.337.81-.56a5.557,5.557,0,0,0-1.176.338c.336,0,.45,0,.431.043" transform="translate(-112.401 -127.473)" fill="#fde4c5"/>
    <path id="Path_11210" data-name="Path 11210" d="M198.473,217.213c-.254.058-.44.113-.607.166a5.5,5.5,0,0,0,.607-.166" transform="translate(-115.904 -127.237)" fill="#fde4c5"/>
    <path id="Path_11211" data-name="Path 11211" d="M243.405,188.05l-.231-.056c-.044.119-.01.173.231.056" transform="translate(-142.435 -110.121)" fill="#fde4c5"/>
    <path id="Path_11212" data-name="Path 11212" d="M179.856,219.741l-.162-.017c-.21.029-.429.058-.667.075Z" transform="translate(-104.869 -128.708)" fill="#fde4c5"/>
    <path id="Path_11213" data-name="Path 11213" d="M65.739,72.379l.022.229a.965.965,0,0,0-.022-.229" transform="translate(-38.508 -42.398)" fill="#fde4c5"/>
    <path id="Path_11214" data-name="Path 11214" d="M161.83,221.33l-.056-.032c0,.012.018.023.056.032" transform="translate(-94.762 -129.63)" fill="#fde4c5"/>
    <path id="Path_11215" data-name="Path 11215" d="M56.518,46.9a1.038,1.038,0,0,1,0,.978,3.56,3.56,0,0,0-.326,1.435,3.072,3.072,0,0,1-.652,2.088,1.4,1.4,0,0,0-.326,1.3c-.065.261-.065.587-.522.522,0,.2-.326.391.065.456-.13.326-.2.717-.652.848v-.587a.49.49,0,0,0-.326.065l-1.174.783c-.065.065-.13.2-.261.326.261-.065.457-.13.718-.2a.489.489,0,0,1-.065.326L51.82,56.426c-.261.261-.587.456-.848.717a1.629,1.629,0,0,0-.261.456v-.2c-.457.326-.913.587-1.37.913-.261.2-.457.391-.718.587-.652.457-1.3.913-1.957,1.3-.717.457-1.5.848-2.218,1.24a9.518,9.518,0,0,0-.848.587l-.783.587-1.37.782c-.261.13-.587.261-.848.391-.391.2-.718.391-1.109.587-.13.065-.261.065-.391.13a13.27,13.27,0,0,0-1.174.848,1.912,1.912,0,0,0,.587.13,7.33,7.33,0,0,1,1.174.2,12.32,12.32,0,0,1,1.37.587,3.69,3.69,0,0,0,.783.261,2.309,2.309,0,0,1,.587.261h.913c.391.2.718.391,1.044.587a.9.9,0,0,1,.2-.261c.2.065.391.13.326.391,0,.065.13.2.2.261.261.2.587.326.848.522.391.261.717.587,1.044.848l.391.2c-.326.065-.457.587-.261,1.109l-.261.261h.326v.717a3.7,3.7,0,0,0,.261-.456c.391,0,.391.065.261.456a3.746,3.746,0,0,0-.261.913h.2V72.6c.587-.261.652-.457.587-1.435-.456-.13-.456-.13-.456-.978a4.054,4.054,0,0,0,.522.783c.326.261,0,.652.326.978a.9.9,0,0,0,.2-.261c.065.261.13.456.2.652h.2c0-.2.065-.391,0-.522-.2-.326,0-.587,0-.848a.229.229,0,0,0,.065-.13c.065.065.2.13.261.261a.92.92,0,0,1,.065.587c-.065.261-.261.456-.065.783.065-.13.065-.2.13-.326v.065a.887.887,0,0,1-.13,1.044l-.2.391c-.13-.326-.587-.522-.2-.978h-.13c-.065.065-.13.065-.2.13-.326.261-.783.457-.652,1.044a.492.492,0,0,0,.261-.065c-.065.13-.065.2-.13.2a.593.593,0,0,0-.261.522c.065.522-.261.783-.587,1.109-.2.2-.326.457-.587.587l-1.37.783a1.723,1.723,0,0,0-.391.326.9.9,0,0,1-.261.2l-1.762.783a2.145,2.145,0,0,1-1.239.391c-.065,0-.13,0-.13.065-.261.522-.783.652-1.239.848-.457.13-.979.13-1.435.261-.2.065-.326.261-.522.391l-.2.2c-.065-.13-.13-.2-.2-.326-.261.457-.587.718-1.109.391.261-.391.978-.065,1.109-.652l-.261.261c-.2-.326-.391-.13-.652,0a7.207,7.207,0,0,1-1.044.457l-.391.2a3.69,3.69,0,0,0-.783.261c-.065,0-.13.065-.2.13a.492.492,0,0,1-.065.261l.587-.391c.065.522,0,.587-.457.652A7.962,7.962,0,0,0,33.684,82c-1.043.261-2.087.587-3.131.848l-2.936.783-1.174.2a.93.93,0,0,0-.391.13c-.2.065-.391.2-.522-.065-.065.456-.456.391-.717.456-.913.261-1.827.522-2.74.717l-4.11.783c-.652.13-1.3.261-1.957.326a7.212,7.212,0,0,1-1.174-.13h-.2v.2a1.268,1.268,0,0,1,.456.065c-.326.065-.587.13-.848.2h-.391l-1.37-.2c-.13,0-.261.065-.391.065a.924.924,0,0,1-.391-.13c-.065,0-.065-.065-.13-.13l.2-.2c-.065-.065-.13-.13-.2-.13a.825.825,0,0,0-.391-.065v.2h.456a.24.24,0,0,0-.065.2h-.457c.065-.2-.065-.391.13-.522.13-.391.391,0,.587-.065-.13-.13-.2-.326-.326-.457-.2-.13-.456-.13-.652-.261-.13-.065-.2-.2-.326-.326h-.2a3.736,3.736,0,0,1-1.7-1.3h.13a.24.24,0,0,0,.2-.065c.2.13.261.456.587.391l-.587-.587c.13-.2.261-.326.391-.522a3.174,3.174,0,0,0,.457.2,6.513,6.513,0,0,1-.652-.717.489.489,0,0,1-.065-.326l.2.2c.065.065.13.2.261.2.261.065.522.065.782.13.2.065.391.2.587.261.065,0,.13.065.2.065.913,0,1.827,0,2.74-.065,1.044-.065,2.088-.456,3.132-.522,1.37-.13,2.609-.652,3.914-.848.065,0,.065-.065.13-.13-.391,0-.522-.2-.522-.587,0-.13-.13-.2-.2-.261l-.391.2v-.2a.9.9,0,0,1,.261-.2l-.2-.391a3.7,3.7,0,0,0-.456.261c.065-.261.13-.522.2-.848l-.261.261-.2-.587c-.261.2-.2.652-.652.587a3.189,3.189,0,0,1,.2-.456c.065-.2,0-.261-.2-.261.13-.326.261-.652.391-1.044-.326,0-.652.391-.783.717a11.727,11.727,0,0,1-.522,1.37v.2l-.2-.2a2.754,2.754,0,0,1,.261-.783,1.451,1.451,0,0,0,.2-1.044,1.379,1.379,0,0,1,.2-.457l.587-1.174a1.438,1.438,0,0,1,.2-.326,2.146,2.146,0,0,0,.457-1.044c.065-.261.065-.652.456-.783v-.065l.587-1.37.783-1.761a1.605,1.605,0,0,0,.065-1.109c-.065-.261.13-.326.326-.391a4.264,4.264,0,0,1,.456-.13.9.9,0,0,1-.261-.2,3.173,3.173,0,0,0,.457-.2c-.326-.13-.718.2-.913-.261a2.241,2.241,0,0,1,1.435-.783.14.14,0,0,0,.13-.13,11.569,11.569,0,0,0,.979-2.022,16.268,16.268,0,0,1,1.044-2.153c.326-.652.717-1.3,1.044-1.957.522-.913.978-1.827,1.435-2.805.326-.652.587-1.37.913-2.022a12.165,12.165,0,0,0,.652-1.3.786.786,0,0,1,.652-.457h-.261c.261-.456.326-.978.913-1.239-.065.326-.522.652,0,.848-.2.326-.587.587-.326,1.109l.587-1.174a8.685,8.685,0,0,0,.456-1.174c.13-.261.2-.522.326-.783a7.677,7.677,0,0,1,.717-1.239c.13-.2.261-.13.391-.065.065.326.13.587.2.848,0,.065-.065.13-.065.2l-.2.391.391.2c.065,0,.13.065.2.13a.9.9,0,0,1,.2-.261.24.24,0,0,1-.065.2,3.652,3.652,0,0,0-.456,2.349,2.079,2.079,0,0,1-.13.848c.2-.13.456-.13.522-.456s.261-.457.652-.391a1.148,1.148,0,0,0-.261.326c.326.261.065.457-.065.718.391.13.2.326.065.522a16.649,16.649,0,0,0-.848,1.892l.2-.391a.875.875,0,0,0,.065.326c.13-.522.587-.783.522-1.3l.13-.13c.2-.261.456-.456.326-.848q.391-.1.2-.391c.2-.065.391-.13.065-.391.326.065.522-.261.718,0-.065.2-.065.391-.13.522L33.88,57.8c-.2.391-.326.783-.522,1.174-.065.2-.261.326-.326.522-.2.456-.391.913-.587,1.435h.261c-.261.522-.456.978-.717,1.435a.228.228,0,0,1-.065.13c-.391-.13-.391.261-.522.456a4.261,4.261,0,0,0-.13.456c.391-.13.718-.261,1.044-.391.913-.391,1.827-.783,2.74-1.24l3.523-1.761c1.109-.587,2.218-1.174,3.262-1.762L45.362,56.1c.978-.652,1.892-1.3,2.805-2.022.978-.783,1.892-1.631,2.87-2.414.522-.391,1.044-.783,1.566-1.239l.979-.979c.065-.065.13-.13.13-.2-.13-.326.065-.522.2-.783a2.8,2.8,0,0,0,.391-1.435c0-.2.065-.391.065-.587-.065-.652-.587-.522-1.043-.652l.391-.2c-.457-.326-.913-.391-1.109-.2-.13-.261-.326-.13-.522-.13a2.825,2.825,0,0,1-1.044-.065,21.158,21.158,0,0,0-3.523-.065H46.34a8.566,8.566,0,0,0-1.827.065,14.263,14.263,0,0,1-2.349.2,15.265,15.265,0,0,0-2.479.2c-.652.13-1.24.065-1.827.2l-2.153.391-1.37.2a.239.239,0,0,0-.2.065,5.6,5.6,0,0,1-1.761.587l-1.957.587-.587.2c-1.827.522-3.653,1.044-5.48,1.631-.717.261-1.435.587-2.153.848s-1.435.456-2.153.717c-.326.13-.652.326-.979.456-.913.391-1.826.783-2.74,1.24-1.044.522-2.088,1.109-3.132,1.631-.913.456-1.892.848-2.805,1.3-.587.326-1.174.652-1.761,1.044C7.589,57.4,6.545,58.122,5.567,58.9a2.728,2.728,0,0,0-1.109,1.3c-.065.2-.065.326.13.391s.391.326.522.13a7.479,7.479,0,0,0,1.109.391c1.24.2,2.545.326,3.784.522h.391c-.13.13-.2.261-.261.326L5.828,61.58l3.132.587c.065-.065.2-.13.326.065a.358.358,0,0,0,.326.2c.261.065.522.065.783.13a.5.5,0,0,1,.326.13,3.607,3.607,0,0,1,.522.391c-.652.261-.652.261-2.022,0-.261-.065-.587-.065-.848-.13v.2l1.957.391v.2l-2.153-.391a.492.492,0,0,0,.065-.261l-1.37-.391.587.2a3.536,3.536,0,0,1-2.153-.522A4.558,4.558,0,0,0,4,61.841c-.2-.065-.457,0-.391.326.783.391,1.631.783,2.479,1.174v.2c-.587-.261-1.239-.522-1.826-.782a5.207,5.207,0,0,1-1.044-.522.492.492,0,0,0-.261-.13.6.6,0,0,1-.652-.587v-.2c-.391-.065-.783-.065-.783-.652h-.2a1.272,1.272,0,0,0-.065-.457c.2-.065.261-.261.2-.522a1.2,1.2,0,0,1,.13-.456c.326-.522.717-1.044,1.109-1.566a2.555,2.555,0,0,1,.522-.652,6.889,6.889,0,0,0-.783.652.2.2,0,0,0-.065-.13A4.5,4.5,0,0,0,1.327,58.97c-.13.326-.261.326-.391.2v-.456A.393.393,0,0,1,1,58.448l.587-.979.2-.391c-.065.065-.2.13-.261.2L.348,58.644a1.419,1.419,0,0,1-.326.2c-.065-.457,0-.587.391-.718.065,0,.2-.065.2-.13a2.336,2.336,0,0,1,.979-1.239,17.922,17.922,0,0,1,1.7-1.435l1.37-.978-.783.587a1.174,1.174,0,0,1-.456.326.491.491,0,0,1-.326.065c-.13,0-.261,0-.2.2s.065.261-.2.261c-.13,0-.261.13-.456.2.2-.391.261-.848.783-.978a.294.294,0,0,0,.2-.2c-.065-.326.2-.456.391-.652l1.174-.978.783-.587a11.874,11.874,0,0,0,1.043-.848A5.939,5.939,0,0,1,8.5,50.489L9.677,49.9c.065-.065.2,0,.326,0a1.11,1.11,0,0,0,.326-.13v.2a2.192,2.192,0,0,1,.913-.326c.261-.065.652-.065.783-.457a.141.141,0,0,1,.13-.13,4.724,4.724,0,0,0,.587-.326,1.676,1.676,0,0,1,1.174-.457c.261-.065.2.13.065.261a3.7,3.7,0,0,0,.456-.261c-.065.2-.065.326-.13.391-.522.261-1.109.522-1.7.783a3.8,3.8,0,0,1-1.892.587,1.388,1.388,0,0,0-.978.457c-.261.326-.652.391-.978.587l-.979.587a15.652,15.652,0,0,0-1.37.848c-.13.13-.391.2-.326.391.2-.065.391-.065.522-.13.326-.13.587-.326.913-.456a3.667,3.667,0,0,1,.783-.261l.391-.2.979-.587.2.2-.391.391,1.174-.391c.13-.065.261,0,.391,0l.587-.2a.064.064,0,0,0,.065-.065c.2-.2.391-.326.652-.13-.587.456-1.435.456-1.892,1.109l.587-.2a29.2,29.2,0,0,0,3-1.239c1.239-.652,2.544-1.044,3.719-1.7.065,0,.13,0,.13-.065a1.561,1.561,0,0,1,1.5-.652,4.677,4.677,0,0,0,1.37-.326c.913-.261,1.761-.652,2.61-.978.652-.261,1.3-.522,2.088-.848a.492.492,0,0,0-.261-.065,5.415,5.415,0,0,0-1.762.2l-2.74.978c-.391.13-.783.261-1.24.391a.9.9,0,0,1,.2-.261l-1.174.783,1.37-.587c-2.479,1.044-4.958,2.088-7.5,3.132a2.558,2.558,0,0,1,.913-.522l.978-.587.978-.587v-.2l-.978.2a12.049,12.049,0,0,1,2.936-1.37h-.2c-.065,0-.2,0-.2-.065a.39.39,0,0,1,.065-.261,2.685,2.685,0,0,1,.717-.457l.978-.587a1.2,1.2,0,0,1,.783-.326,6.41,6.41,0,0,0,1.109-.13c.065.065.13.13.13.2.522-.13.978-.261,1.435-.391.065,0,.13-.13.2-.2l.391-.587-.261-.261a.924.924,0,0,1,.391-.13,1.97,1.97,0,0,0,1.044-.326c.13-.13.391-.261.522-.2a1.107,1.107,0,0,0,1.174-.261c.065-.065.13-.065.2-.13.065.326.326.326.587.261l2.153-.587a.2.2,0,0,1,.065-.13c-.913.065-1.7.587-2.609.587a.9.9,0,0,1,.261-.2,1.9,1.9,0,0,0,.782-.456.686.686,0,0,1,.587-.326,2.066,2.066,0,0,0,.587-.2,17.547,17.547,0,0,1,1.762-.456l2.348-.2.783-.2.783-.2a16.438,16.438,0,0,1,1.761-.261.924.924,0,0,0,.391-.13h-.2a1.45,1.45,0,0,1,1.044-.2h1.5a1.91,1.91,0,0,0,.587-.13c.261-.065.522-.261.848-.065a.2.2,0,0,0,.261,0,1.122,1.122,0,0,1,.913.065,4.963,4.963,0,0,0,1.37.2c.913.065,1.827.065,2.74.065.978,0,1.957.065,2.936.065a12.61,12.61,0,0,0,1.566-.065c-.391-.065-.783-.2-1.174-.261l-4.5-.391c-.13,0-.261.065-.391.065l.2.2h-.978a.9.9,0,0,1,.261-.2,1.279,1.279,0,0,0-.457-.065c.13,0,.261-.065.391-.065,1.3-.065,2.61,0,3.979.065,1.24.065,2.479.326,3.719.456.065,0,.13.065.2.065.391-.2.717.065,1.044.2-.261.2-.587.065-.913.065v.2l.978.2c.391.065.783-.13,1.109.2a.487.487,0,0,0,.326.065v-.326c.652.326,1.239.652,1.827.979.261-.391.2-.326.522-.065.261.2.391.326.2.652a.875.875,0,0,1-.065-.326c-.261.2-.261.261,0,.391H55.8c.13.326.522.326.718.587s.391.2.587,0l-.391-.391c.13.065.326.065.391.13.2.326.522.587.522,1.044,0,.065.065.13.13.2a4.235,4.235,0,0,1,.522.587,3.7,3.7,0,0,0-.261.456,2.078,2.078,0,0,1,.587-.2.465.465,0,0,1,.391.2c.065.2.065.326.261.261.065,0,.13.065.2.065v.2h-.2a1.78,1.78,0,0,0,.326,1.174ZM.283,56.817a3.438,3.438,0,0,0,1.3-1.044v-.2L.217,56.752v.2Zm.13,7.111a1.458,1.458,0,0,1,.978.261c0,.065-.065.13-.065.261-.326-.2-.587-.391-.913-.587Zm2.61-8.546.2-.2v-.2a.489.489,0,0,0-.326.065c-.587.457-1.109.913-1.631,1.37a.24.24,0,0,0-.065.2l.13.065c.391-.261.913-.457,1.109-.848.13-.326.261-.326.522-.326.065-.13.065-.261.13-.326Zm.522-.391L5.5,54.012v-.2c-.652.456-1.5.391-2.022.978v.2Zm1.7,9.851c-.456-.13-.848-.261-1.239-.391.13-.391-.2-.391-.457-.391v-.2l.783.2c.13.065.326.065.261.326l.13.065c.326-.13.261.13.326.391ZM6.415,65.95c-.587-.261-1.174-.2-1.5-.782a1.6,1.6,0,0,1,1.5.782M8.307,85.065a1.736,1.736,0,0,1,.718.652,3.99,3.99,0,0,1-.913-.456c-.587-.522-.587-.652-.326-.848.13.261.261.522.587.587Zm4.175-.261c.065,0,.13-.065.2-.065a.825.825,0,0,0-.391-.065c-.2,0-.456-.13-.652-.065a1.076,1.076,0,0,1-.652-.13,1.268,1.268,0,0,0-.522-.065c-.13,0-.326,0-.391-.065-.326-.326-.717-.2-1.109-.2.065.065.13.2.2.261s.2.13.261.2a.93.93,0,0,0,.391.13c.261,0,.522-.065.782-.065.587,0,1.174.065,1.762.065ZM13.4,48.793l.391-.2v-.2l-.391.2.065.13ZM14.5,84.347h-.978v.2H14.5Zm2.414-5.61c.065-.065.2-.13.261-.2a5.987,5.987,0,0,1-.652,2.088h-.2a7.562,7.562,0,0,1,.261-1.174,2.038,2.038,0,0,1,.326-.652ZM19.4,45.857l3.914-1.174v-.2a.489.489,0,0,0-.326.065l-.978.391h-.2c-.065-.261-.2-.065-.326-.065l-.783.2c-.065,0-.13.065-.2.13s-.13.13-.2.13a1.228,1.228,0,0,0-.718.326v.2Zm24.66,25.9a1.14,1.14,0,0,0,.261-.978c0-.065-.065-.2-.13-.2a10.1,10.1,0,0,0-1.37-.261.659.659,0,0,0-.065.2c-.783-.065-1.566-.2-2.349-.261-.717-.065-1.435-.065-2.153-.065-.979,0-1.957-.065-2.936-.065a23.656,23.656,0,0,0-3.719.2c-1.761.261-3.523.652-5.284.978-.326.065-.456.261-.522.652l.2.2.2-.391-.2.587a2.027,2.027,0,0,1-.391.848,1.617,1.617,0,0,0-.522.978,2.479,2.479,0,0,1-.848,1.5,10.91,10.91,0,0,0-.783,1.043,3.383,3.383,0,0,0-.783,1.7v-.391l-.2.2-.2.2-.2.2c.065,0,.13.065.2.065.2,0,.261.065.2.261H22.2c-.13.2-.2.391-.261.391a5.256,5.256,0,0,1-1.044.065c.065-.457.391-.13.652-.2-.065-.065-.065-.2-.13-.2-.261-.065-.587-.13-.717.261V79a7.343,7.343,0,0,0-.326.848c0,.065.065.13.13.2.2-.326.326.065.522.065a.5.5,0,0,0-.065-.261,3.186,3.186,0,0,1,.456.2V80.5c.457-.261,1.044-.065,1.37-.522.13,0,.261.065.391.065a18.6,18.6,0,0,0,1.827-.457l4.11-1.174,3.132-.978,2.936-.978,2.153-.783c.652-.261,1.37-.457,2.022-.783,1.044-.522,2.088-1.044,3.066-1.631a6.1,6.1,0,0,0,1.762-1.37ZM21.615,82.847a1.438,1.438,0,0,0,1.631-.326,3.612,3.612,0,0,0-1.7.391Zm.261-2.088h.2a.924.924,0,0,1-.391-.13V80.5Zm.782-.913.783.2v.2a.9.9,0,0,1-.783-.2Zm28.7-36.272v-.2c-.2-.065-.391-.2-.587-.261a14.833,14.833,0,0,0-3.719-.652c-.783-.065-1.565-.065-2.348-.065-1.5,0-3-.065-4.5,0-1.37.065-2.74.261-4.11.457a19.947,19.947,0,0,1-3.914.391c-.391,0-.783.065-1.239.065l-.13-.13c-.065.065-.13.13-.13.2-.13,0-.261-.065-.326,0-.261.13-.652-.065-.848.326h-.13c-.522-.065-.848.326-1.239.522l-.391.2-.979.2.979-.2-2.153.587v.2c.522-.065,1.044-.065,1.565-.13,1.435-.261,2.871-.522,4.24-.913a20.17,20.17,0,0,1,3.458-.587c1.24-.13,2.479-.2,3.719-.261.848-.065,1.7-.065,2.545-.065a.928.928,0,0,0,.391-.13H38.381v-.2a1.91,1.91,0,0,1,.587-.13l2.936-.2a26.054,26.054,0,0,1,3.2,0c.848.065,1.7.2,2.544.326l1.37.2a.914.914,0,0,0,.717,0c.261-.13.652.065.979.13l.783.2ZM26.7,63.8h.2l.783-1.565h-.2L26.7,63.8m.2,18.789.979-.2-.979.2v0Zm3-36.924c.065,0,.13-.065.2-.13l-2.153.391v.2h.2l1.761-.391Zm.718-3.393a1.326,1.326,0,0,0-1.109.065h.522a1.369,1.369,0,0,1-.391.261,1.279,1.279,0,0,0,.457.065,8.3,8.3,0,0,1,2.218-.13.492.492,0,0,0,.261-.13c.2-.065.456,0,.652-.065s.391-.261.587-.326l1.957-.391h.391v-.2l-1.37.2,1.761-.2v-.2c-.978.13-1.957.2-2.936.326a21.872,21.872,0,0,1-2.87.456c-.065.065-.2.2-.261.13Zm.717,2.936a1.8,1.8,0,0,0-.587.065l-.587.2a1.936,1.936,0,0,0,1.174-.261m-.522,8.155c-.13.065-.457-.13-.391.391a3.761,3.761,0,0,1,.456-.261v-.2Zm-.13-.587c-.065,0-.13.2-.261.391.391-.065.652-.13.913-.2v-.2a3.285,3.285,0,0,0-.783-.13Zm.391-.522.2-.2v.587l-.2-.391m1.044,2.936h-.587l.261-.261a.229.229,0,0,0-.065-.13c.2-.326-.065-.717.065-1.043l.2-.2.2-.391h.2c.13.457-.522.717-.326,1.174l.2-.2c-.2.261-.587.457-.13.848Zm2.022,9.525-2.349,1.174.783-.2.391-.2c.2-.13.391-.326.587-.456s.391-.2.587-.326v0ZM32.706,45.466l.978-.2v-.2l-.978.2Zm.326-.2c.718-.13.718-.13.587-.391a2.326,2.326,0,0,1-.587.261Zm.2,9.068h.2l-.2.783h-.2l.2-.783m-.13,27.2c.391-.13.717-.261,1.109-.391l-1.174.2v.2Zm.261-27.6h-.2l.391-.783h.2l-.391.783M34.4,45.27h-.587v.2H34.4Zm3.719-.718,1.174-.2v-.2a28.112,28.112,0,0,0-5.219.848.93.93,0,0,0,.391.13,7.166,7.166,0,0,1,1.174-.13l.587-.2a4.858,4.858,0,0,0,1.7-.261.394.394,0,0,1,.261-.065Zm-3.393,23.29v.2h.2Zm4.045-1.24c-.522-.065-1.109-.13-1.7-.2-.13,0-.391.065-.391.13-.065.391-.326.2-.522.2a3.285,3.285,0,0,0-.783.13l1.566.2a.2.2,0,0,0,.065-.13,3.184,3.184,0,0,1,.782.065l2.74.391a1.8,1.8,0,0,1,.587.065l1.37.391a.489.489,0,0,1,.326.065,2.109,2.109,0,0,0,1.566.391,2.324,2.324,0,0,0-.587-.261c-.261-.065-.522-.065-.587-.456-.065-.261-.522-.391-.783-.261a3.73,3.73,0,0,1,.457.261,1.118,1.118,0,0,1-.522-.065,4.38,4.38,0,0,1-1.109-.391c-.261-.2-.326-.065-.457.065a5.416,5.416,0,0,0-.978-.261c-.391-.065-.783-.2-1.174-.261ZM37.99,41.225c-.457,0-.913-.2-1.3.261-.065.065-.261.065-.391.13h.391c.587-.065,1.174-.2,1.761-.261.522,0,1.044.065,1.566.065a3.285,3.285,0,0,0,.783-.13,3.167,3.167,0,0,0-.783-.065H37.99Zm3.066,36.859c.13-.065.2-.326.326-.522l-.391.2c.13.261-.13.261-.2.326a1.313,1.313,0,0,1-.522.261.93.93,0,0,1-.391.13,1.276,1.276,0,0,0-.522.065c-.065,0-.13.13-.2.13a14.123,14.123,0,0,1-1.566.457c-.2.065-.326.13-.522.2h.587l-.456.457c.261-.065.456-.13.717-.2.587-.065.587-.065.652-.2h-.783L38.773,79a11.721,11.721,0,0,1,1.37-.522c.326-.13.652-.2.913-.326Zm-3.653,0a4.769,4.769,0,0,0,2.871-.979c-.913.326-1.827.652-2.805.979Zm6.459-9.068c.2.065.391.2.587.261-.718-.652-5.48-1.631-6.263-1.24.913.13,1.827.261,2.806.391a.492.492,0,0,0-.261.065h.652c.2,0,.391-.065.522,0,.261.065.522.2.783.261.391.065.783.065,1.174.13ZM41.708,41.16a.9.9,0,0,0-.2.261h1.566c-.326-.065-.652-.13-1.044-.2a.492.492,0,0,1,.065.261l-.391-.2Zm.913,37.055c.391-.2.717-.391,1.109-.587-.261-.2-.913.065-1.174.522Zm.783-2.74c.522.2.717-.2,1.044-.391v-.2l-.979.587ZM44.84,58.9v-.2l-1.37.783v.2l1.37-.783m.456-15.07h-.978v.2H45.3Zm-.913-2.675v.2l2.936.391v-.2a20.326,20.326,0,0,0-2.87-.326Zm5.415.848a.655.655,0,0,0-.065.2l-.391-.2v-.2a.394.394,0,0,1,.261.065Zm4.436,9.981a4.915,4.915,0,0,0,1.37-3.066c0-.2.2-.391.326-.652-.065-.326-.13-.717-.2-1.109h-.326a.494.494,0,0,1-.065.261c-.065-.326-.13-.587-.2-.848-.065.261-.2.522-.13.717a1.5,1.5,0,0,1-.2,1.631,2.321,2.321,0,0,0-.2.718l.2-.2c-.718,1.109-1.109,2.414-2.218,3.262a2.063,2.063,0,0,1,.326.391,1.047,1.047,0,0,1,.587-1.109,2.831,2.831,0,0,1-.391.457h.2l.782-.783Zm1.044,1.631c.13.2.13.2-.2.326l-.2-.2.391-.2Zm.13-2.675.391-.978-.391.978h0Zm.979-.848c-.326-.522.065-1.044.13-1.566a2.594,2.594,0,0,1-.13,1.566m.065-3.2a1.217,1.217,0,0,1,.456,1.044c-.2-.391-.391-.717-.587-1.044h.13Zm.522,3.327v.2a2.217,2.217,0,0,1-.391,1.7c-.065.065-.2.13-.261.2a4.235,4.235,0,0,1,.261-.848,2.085,2.085,0,0,0,.326-1.239c0-.13.065-.261.065-.391s.065-.326,0-.391c-.326-.391.13-.522.2-.783a3.194,3.194,0,0,1-.065,1.566Z" transform="translate(0 -23.598)" fill="#7667b2"/>
    <path id="Path_11216" data-name="Path 11216" d="M145.319,106.1c-.13.13-.2.261-.326.391s-.391.261-.391.456a.962.962,0,0,1-.587.718c-.717.326-1.435.587-2.153.848-.652.261-1.3.457-1.957.652a16.164,16.164,0,0,0-1.892.652,1.431,1.431,0,0,1-1.044.13c-.13-.065-.326.065-.456.13a8.875,8.875,0,0,1-1.826.718,5.169,5.169,0,0,0-.978.2,3.815,3.815,0,0,1-.849.13c-.587.065-1.174.2-1.761.261a5.014,5.014,0,0,1-.978.13,3.451,3.451,0,0,1-.783-.2l-1.762-.2h-.13a2.267,2.267,0,0,0-.848-.717c-.2-.13-.326-.326-.522-.457-.261-.261-.587-.456-.848-.717a3.913,3.913,0,0,1-.849-1.631.835.835,0,0,1-.065-.391,8.937,8.937,0,0,1,.782-2.87,17.442,17.442,0,0,1,1.174-1.827,3.989,3.989,0,0,1,.456-.652l.391-.391c.522-.522,1.044-1.109,1.631-1.631a31.053,31.053,0,0,1,3.784-2.74,25.473,25.473,0,0,1,2.283-1.239,7.6,7.6,0,0,1,1.7-.652,6.3,6.3,0,0,1,1.109,0c.2,0,.391-.065.587-.065h.587a1.78,1.78,0,0,0,.587,0,3.787,3.787,0,0,1,1.239.2h-.2l.587.783c0-.065-.065-.13-.065-.2l.2-.2c.065.13.456.065.326.391,0,.065.065.13.13.2.13.13.391.2.261.457l.065.065c.326.261.522.652.913.848.065.065.261.13.065.326a.935.935,0,0,0,.13.2,4.206,4.206,0,0,0,.522.587c-.326.2-.326.391-.13.652a.736.736,0,0,1-.065.522,7.662,7.662,0,0,1-.717,1.24c-.13.2-.326.326-.457.522l-.391.391a1.432,1.432,0,0,1-.326.2,2.8,2.8,0,0,1-.652.587c-.391.2-.848.261-1.239.457a6.37,6.37,0,0,1-2.871.652,1.91,1.91,0,0,0-.587.13,2.763,2.763,0,0,1-1.761-.2,4.1,4.1,0,0,0-.587-.13,3.172,3.172,0,0,0,.457-.2c.13-.065.261-.2.457,0,.13.13.456.065.717,0h.456c-.13-.13-.2-.261-.261-.261h-2.414c-.13-.2-.326-.261-.587-.065-.13-.261-.456-.391-.456-.717.783.13,1.5.261,2.218.391a3.786,3.786,0,0,1-.457-.261.492.492,0,0,1,.261-.065l-.261-.261a5.8,5.8,0,0,0,.718.13c.261-.065.456-.13.652-.2.326-.065.652-.065.978-.13.065,0,.13-.13.261-.261-.587.065-1.044.2-1.5.2a6.193,6.193,0,0,1-1.5-.326l.587-.2h.065c.391.326.718-.065,1.044-.13v-.13c-.2,0-.391-.065-.521-.065a7.212,7.212,0,0,0-1.175.13c.065,0,.13.065.2.13v.065l-.783-.2h.391v-.2c-.261-.13-.587-.391-.783-.326a1.26,1.26,0,0,0-.848.783h-.2v.456c-.065-.456-.261-.391-.456-.2a20.029,20.029,0,0,1-1.632,1.7c-.261.261-.456.652-.848.783v.13c-.326.783-.652,1.566-1.044,2.349a3.072,3.072,0,0,0-.391.587.44.44,0,0,0,.2.457,3.052,3.052,0,0,0,1.7.326h.979l1.174-.2a.839.839,0,0,1,.782.065c.065.065.261-.065.391-.13a.659.659,0,0,0-.065-.2,2.775,2.775,0,0,1,1.109-.261c-.065.13-.13.2-.2.326a1.276,1.276,0,0,1,.456-.065c-.261.065-.522.065-.783.13l-.391.2c.2,0,.522-.2.522.261l-1.174.391a3.187,3.187,0,0,0,.783-.065l.979-.2c.2-.065.326-.2.522-.261v-.065c.522-.2,1.044-.391,1.631-.587-.261.522-.783.587-1.239.718l-2.154.587c-.13,0-.2.13-.261.2s-.13.13-.2.13a7.611,7.611,0,0,1-1.174.261v.2h1.37l-.978.391-.391.2a3.767,3.767,0,0,0,.913-.2,2.535,2.535,0,0,1,.978-.13.7.7,0,0,0,.718-.326c.065-.13.261-.2.392-.261a.826.826,0,0,1-.392-.065l.065-.13c.391-.065.718-.065,1.044-.13a3.515,3.515,0,0,1,1.435-.261,5.414,5.414,0,0,0,1.37-.391,3.978,3.978,0,0,0,.783-.326c.2-.065.457,0,.457-.326a.659.659,0,0,1,.2-.065l.783-.391a.825.825,0,0,1,.391-.065l2.153-.783a1.141,1.141,0,0,1-.326-.261l.978-.391a3.3,3.3,0,0,1,.848-.326c.13-.065.326-.065.457-.13a.924.924,0,0,0,.391-.13c.13-.065.2-.13.326-.13a10.06,10.06,0,0,1-.848.783c.522.2.783-.261,1.174-.391Zm-16.9,4.632c.652-.391,1.37.065,2.023-.2v-.2h-2.153a.825.825,0,0,1,.391.065.241.241,0,0,1-.2.065v.2Zm1.109-.848v.2h.587c.065,0,.131-.065.2-.13l-.2-.2a.24.24,0,0,0,.065.2c-.261-.065-.456-.13-.652-.2Zm3.719-6.785-.783-.2.979.2a2.211,2.211,0,0,1-.652-.065,5.424,5.424,0,0,1-.783-.522c-.065-.065-.065-.2-.13-.326l1.566.587v.2Zm-.391,6.719v.2l-.783.2.587-.2Zm1.5-10.112a14.372,14.372,0,0,0-1.174.913,4.465,4.465,0,0,0,.652.261c.13.065.261,0,.456,0a17.514,17.514,0,0,0,1.827-.261c.652-.13,1.3-.391,1.957-.587a.825.825,0,0,1,.391-.065c.391-.261.848-.522,1.3-.848l.2.2a.649.649,0,0,1,.261-.326,1.629,1.629,0,0,1,.456-.261c-.065-.065-.065-.13-.13-.2h.261c.261-.065.2-.261.13-.456s-.065-.391-.326-.391a2.225,2.225,0,0,0-.652.065c-.717.2-1.435.391-2.153.652a15.494,15.494,0,0,0-3.327,1.566Zm2.87,7.176a5.834,5.834,0,0,0,2.284-.718c.261-.2.522-.391.848-.652H139.9a1.951,1.951,0,0,1,1.7-.326,8.257,8.257,0,0,0-.783.522,8.5,8.5,0,0,1-2.675,1.3,5.451,5.451,0,0,1-.978.261,2.575,2.575,0,0,1-.391-.13,1.418,1.418,0,0,0-.2.326l-1.761.587v-.2c.2-.13.391-.326.587-.456a15.837,15.837,0,0,1,1.565-.652,1.108,1.108,0,0,1,.457-.065Zm-.13-4.632a1,1,0,0,0,1.174-.326c-.391.13-.717.261-1.109.391Zm1.3,5.545a.83.83,0,0,1-.391.065v-.2c.065-.065.13-.2.261-.261l2.936-1.37a15.055,15.055,0,0,1,1.827-.652c-.065.13-.13.326-.261.391a13.035,13.035,0,0,1-1.37.652c-.261.13-.587.13-.848.261-.652.391-1.37.587-2.022.913Zm1.631-11.612c-.065.13-.13.2-.2.326h1.044l-.978-.2Zm2.218,11.286v-.2l-.587.2v.2l.587-.2m.131-2.218a.39.39,0,0,1-.066.261l-.391.391c-.13-.326-.2-.587.2-.652.065,0,.13.065.2.065Z" transform="translate(-72.819 -55.722)" fill="#7667b2"/>
    <path id="Path_11217" data-name="Path 11217" d="M192.86,93.445c-.717.2-1.435.391-2.153.652s-1.37.587-2.087.913c.391.13.717-.261,1.109.13-.522.065-.978.13-1.5.2.065.065.13.065.2.13a2.324,2.324,0,0,1-.587.261.458.458,0,0,1-.261.587l-1.957,1.174c-.456.261-.978.456-1.435.717a18.369,18.369,0,0,0-4.566,3.849c-.457.587-.979,1.174-1.435,1.826l-2.349,3.523a10.585,10.585,0,0,0-.652,1.174,2.3,2.3,0,0,0-.2.717c-.391-.065-.326.326-.391.522-.261.522-.457,1.109-.718,1.631a.5.5,0,0,1-.326.13.964.964,0,0,1-.456.065v-.326c-.065.13-.13.2-.2.326-.261-.065-.587-.065-.652-.457-.13.065-.261.2-.456,0-.065-.065-.326,0-.391-.261v.391a.564.564,0,0,1-.2.391c0-.065-.065-.13-.065-.2,0-.2.13-.391-.2-.456-.065,0-.13-.2-.13-.2.261-.261,0-.456-.13-.652a.24.24,0,0,1-.065-.2h.065l.2.2v-.978l-.2.2a5.426,5.426,0,0,0,.522-.783,6.563,6.563,0,0,0,.457-.978c.13-.326.326-.652.456-.979h-.2l-.391.783h-.2l.2-.587.2-.391c.718-.913.718-2.088,1.174-3.132.522-1.3.978-2.609,1.5-3.914.2-.522.522-.979.718-1.5.456-1.174.913-2.414,1.37-3.588l.979-2.349.391-1.174.587-.391.391.979h.2v-.391c.065-.2.065-.391.13-.587.065-.065.2-.2.261-.2s.13.13.261.2c0-.065.065-.13.13-.326l.391.391a.329.329,0,0,0-.326.456,1.08,1.08,0,0,1-.13,1.174c.065.13.13.2.13.261v.391c-.261.065-.326.261-.391.587a.622.622,0,0,0,.522-.522l.2-.2c.2.2.2.261-.2,1.566a.9.9,0,0,0,.261.2c.065-.065.2-.13.261-.2l.391-1.174a4.509,4.509,0,0,0,.2-.522c.065-.2.065-.391.13-.587l.2-.391c.065.261.13.522.2.848a4.511,4.511,0,0,0,.261-.652h.2c0,.13.065.261,0,.391-.261.587-.587,1.109-.783,1.7s-.326,1.174-.522,1.761c0,.065.065.13.065.2a.24.24,0,0,0,.2-.065c.326-.13.587-.326.913-.457.065-.065.2.065.391.13,1.174-.783,2.414-1.631,3.719-2.479l.2.391-.783.391.391-.2c.065.261.2.2.391.13.391-.2.848-.391,1.3-.587.065-.065.2,0,.326,0l-.2.2c-.326.391-.848.457-1.239.718-.261.13-.261.2-.13.326.2-.13.326-.326.522-.391a7.379,7.379,0,0,1,1.566-.522,7.059,7.059,0,0,0,1.957-.717,1.8,1.8,0,0,1,.587-.065c.261,0,.522-.065.783-.065.2,0,.391.065.587.065v.2l-1.565.587v.2c.13,0,.261.065.391.065l1.957-.391h.391v.2Zm-14.417.652.391-.587h-.2c-.261.065-.261.326-.326.587a4.305,4.305,0,0,0-.587,1.826c.261-.587.783-1.109.783-1.826Zm2.348-3.588a.837.837,0,0,1-.261.913q.1-.391.2-.783h-.391v-.2c.13,0,.261-.065.391-.065.065,0,.2.13.261.2Zm7.372,2.087v-.2l1.174-.391v.2l-1.174.391" transform="translate(-99.941 -52.789)" fill="#7667b2"/>
    <path id="Path_11218" data-name="Path 11218" d="M235.244,106.1c-.13.13-.2.261-.326.391s-.391.261-.391.456a.961.961,0,0,1-.587.718c-.718.326-1.435.587-2.153.848-.652.261-1.3.457-1.957.652a16.156,16.156,0,0,0-1.892.652,1.431,1.431,0,0,1-1.044.13c-.13-.065-.326.065-.456.13a8.869,8.869,0,0,1-1.827.718,5.186,5.186,0,0,0-.979.2,3.8,3.8,0,0,1-.848.13c-.587.065-1.174.2-1.761.261a5.023,5.023,0,0,1-.978.13,3.451,3.451,0,0,1-.783-.2l-1.762-.2h-.13a2.271,2.271,0,0,0-.848-.717c-.2-.13-.326-.326-.522-.457-.261-.261-.587-.456-.848-.717a3.916,3.916,0,0,1-.848-1.631.825.825,0,0,1-.065-.391,8.958,8.958,0,0,1,.783-2.87,17.508,17.508,0,0,1,1.174-1.827,3.967,3.967,0,0,1,.457-.652l.391-.391c.522-.522,1.044-1.109,1.631-1.631a31.019,31.019,0,0,1,3.784-2.74,25.467,25.467,0,0,1,2.283-1.239,7.6,7.6,0,0,1,1.7-.652,6.3,6.3,0,0,1,1.109,0c.2,0,.391-.065.587-.065h.587a1.778,1.778,0,0,0,.587,0,3.788,3.788,0,0,1,1.24.2h-.2l.587.783c0-.065-.065-.13-.065-.2l.2-.2c.065.13.457.065.326.391,0,.065.065.13.13.2.13.13.391.2.261.457l.065.065c.326.261.522.652.913.848.065.065.261.13.065.326a.934.934,0,0,0,.13.2,4.2,4.2,0,0,0,.522.587c-.326.2-.326.391-.13.652a.736.736,0,0,1-.065.522,7.693,7.693,0,0,1-.717,1.24c-.13.2-.326.326-.457.522l-.391.391a1.419,1.419,0,0,1-.326.2,2.813,2.813,0,0,1-.652.587c-.391.2-.848.261-1.239.457a6.37,6.37,0,0,1-2.871.652,1.91,1.91,0,0,0-.587.13,2.764,2.764,0,0,1-1.762-.2,4.1,4.1,0,0,0-.587-.13,3.186,3.186,0,0,0,.456-.2c.13-.065.261-.2.457,0,.13.13.456.065.717,0h.457c-.13-.13-.2-.261-.261-.261h-2.414c-.13-.2-.326-.261-.587-.065-.13-.261-.456-.391-.456-.717.782.13,1.5.261,2.218.391a3.756,3.756,0,0,1-.456-.261.491.491,0,0,1,.261-.065l-.261-.261a5.768,5.768,0,0,0,.717.13c.261-.065.457-.13.652-.2.326-.065.652-.065.979-.13.065,0,.13-.13.261-.261-.587.065-1.044.2-1.5.2a6.185,6.185,0,0,1-1.5-.326l.587-.2h.065c.391.326.717-.065,1.044-.13v-.13c-.2,0-.391-.065-.522-.065a7.212,7.212,0,0,0-1.174.13c.065,0,.13.065.2.13v.065l-.783-.2h.391v-.2c-.261-.13-.587-.391-.782-.326a1.26,1.26,0,0,0-.848.783h-.2v.456c-.065-.456-.261-.391-.457-.2a19.955,19.955,0,0,1-1.631,1.7c-.261.261-.456.652-.848.783v.13c-.326.783-.652,1.566-1.044,2.349a3.053,3.053,0,0,0-.391.587.439.439,0,0,0,.2.457,3.054,3.054,0,0,0,1.7.326h.979l1.174-.2a.839.839,0,0,1,.783.065c.065.065.261-.065.391-.13a.659.659,0,0,0-.065-.2,2.774,2.774,0,0,1,1.109-.261c-.065.13-.13.2-.2.326a1.279,1.279,0,0,1,.457-.065c-.261.065-.522.065-.783.13l-.391.2c.2,0,.522-.2.522.261l-1.174.391a3.186,3.186,0,0,0,.783-.065l.978-.2c.2-.065.326-.2.522-.261v-.065c.522-.2,1.044-.391,1.631-.587-.261.522-.783.587-1.24.718l-2.153.587c-.13,0-.2.13-.261.2s-.13.13-.2.13a7.61,7.61,0,0,1-1.174.261v.2H222l-.978.391-.391.2a3.775,3.775,0,0,0,.913-.2,2.535,2.535,0,0,1,.978-.13.7.7,0,0,0,.717-.326c.065-.13.261-.2.391-.261a.825.825,0,0,1-.391-.065l.065-.13c.391-.065.717-.065,1.044-.13a3.514,3.514,0,0,1,1.435-.261,5.414,5.414,0,0,0,1.37-.391,3.978,3.978,0,0,0,.783-.326c.2-.065.457,0,.457-.326a.659.659,0,0,1,.2-.065l.783-.391a.825.825,0,0,1,.391-.065l2.153-.783a1.142,1.142,0,0,1-.326-.261l.979-.391a3.3,3.3,0,0,1,.848-.326c.13-.065.326-.065.456-.13a.924.924,0,0,0,.391-.13c.13-.065.2-.13.326-.13a10.007,10.007,0,0,1-.848.783c.522.2.783-.261,1.174-.391Zm-16.9,4.632c.652-.391,1.37.065,2.022-.2v-.2h-2.153a.825.825,0,0,1,.391.065.241.241,0,0,1-.2.065v.2Zm1.109-.848v.2h.587c.065,0,.13-.065.2-.13l-.2-.2a.24.24,0,0,0,.065.2c-.261-.065-.456-.13-.652-.2Zm3.719-6.785-.783-.2.978.2a2.214,2.214,0,0,1-.652-.065,5.446,5.446,0,0,1-.782-.522c-.065-.065-.065-.2-.13-.326l1.565.587v.2Zm-.391,6.719v.2l-.783.2.587-.2Zm1.5-10.112a14.375,14.375,0,0,0-1.174.913,4.484,4.484,0,0,0,.652.261c.13.065.261,0,.457,0a17.545,17.545,0,0,0,1.827-.261c.652-.13,1.3-.391,1.957-.587a.825.825,0,0,1,.391-.065c.391-.261.848-.522,1.3-.848l.2.2a.649.649,0,0,1,.261-.326,1.629,1.629,0,0,1,.456-.261c-.065-.065-.065-.13-.13-.2h.261c.261-.065.2-.261.13-.456s-.065-.391-.326-.391a2.225,2.225,0,0,0-.652.065c-.718.2-1.435.391-2.153.652a15.51,15.51,0,0,0-3.327,1.566Zm2.871,7.176a5.83,5.83,0,0,0,2.283-.718c.261-.2.522-.391.848-.652h-.457a1.952,1.952,0,0,1,1.7-.326,8.2,8.2,0,0,0-.783.522,8.5,8.5,0,0,1-2.675,1.3,5.45,5.45,0,0,1-.978.261,2.575,2.575,0,0,1-.391-.13,1.42,1.42,0,0,0-.2.326l-1.761.587v-.2c.2-.13.391-.326.587-.456a15.888,15.888,0,0,1,1.566-.652,1.108,1.108,0,0,1,.457-.065Zm-.13-4.632a1,1,0,0,0,1.174-.326c-.391.13-.717.261-1.109.391Zm1.3,5.545a.83.83,0,0,1-.391.065v-.2c.065-.065.13-.2.261-.261l2.936-1.37a15.006,15.006,0,0,1,1.827-.652c-.065.13-.13.326-.261.391a13,13,0,0,1-1.37.652c-.261.13-.587.13-.848.261-.652.391-1.37.587-2.022.913Zm1.631-11.612c-.065.13-.13.2-.2.326h1.044l-.979-.2Zm2.218,11.286v-.2l-.587.2v.2l.587-.2m.13-2.218a.392.392,0,0,1-.065.261l-.391.391c-.13-.326-.2-.587.2-.652.065,0,.13.065.2.065Z" transform="translate(-125.494 -55.722)" fill="#7667b2"/>
    <path id="Path_11219" data-name="Path 11219" d="M280.55,112.891a1.173,1.173,0,0,0-.978-.457,4.512,4.512,0,0,1,.2.522.9.9,0,0,0-.261-.2V112.5l-.2.391c-.457-.457-.326-1.239-.913-1.7v.261l-.587-.783a7.855,7.855,0,0,1-.978-1.565,10.166,10.166,0,0,1-.652-2.414.489.489,0,0,0-.065-.326c-.065-.065-.13-.065-.2-.13l-.391-2.349v-.326a1.946,1.946,0,0,0-.261-1.566,8.387,8.387,0,0,0-1.043.587,24.492,24.492,0,0,0-3.98,3.327c-1.3,1.435-2.544,2.936-3.784,4.436-.848,1.109-1.566,2.283-2.414,3.392a6.918,6.918,0,0,1-.979.978.9.9,0,0,0,.2-.261c-.2-.065-.326-.13-.457.065a1.758,1.758,0,0,1-.522.456h-.065a.14.14,0,0,1-.13-.13,1.81,1.81,0,0,1,.065-.587l.2-.587.2-.2c-.13.2-.261.326-.391.522-.2.326-.391.326-.652.065l-.2.2-.2.2c-.13-.13-.261-.2-.326-.326a.2.2,0,0,1,0-.261,1.722,1.722,0,0,1,.326-.391l-.2-.2-.391.2c-.065.065-.2.13-.261.065a.5.5,0,0,1-.13-.326,4.922,4.922,0,0,1-.065-.978c.065-.065.2-.13.261-.261l.587-1.566a2.474,2.474,0,0,1,.2-.652l.979-1.957,1.761-3.327c.457-.913.848-1.892,1.3-2.87.457-.913.978-1.827,1.435-2.74.326-.652.652-1.3,1.044-1.957a10.757,10.757,0,0,1,.913-1.435h.2a2.414,2.414,0,0,0,0,1.566l.783-1.174h.2c.065.457-.326.783-.391,1.174h.2v.2q-.1.293.2.2h.13c.261.261.391-.065.587-.13a.24.24,0,0,1,.2-.065V97.1c.13-.065.2-.065.326-.13v.391c.065-.065.13-.13.2-.13a.24.24,0,0,1,.2-.065,2.848,2.848,0,0,0,.065.326.791.791,0,0,0-.065.848.5.5,0,0,1-.13.261l-.979,1.957a.241.241,0,0,0-.065.2,3.158,3.158,0,0,0,.913-.587,1.3,1.3,0,0,1,.783-.522,7.259,7.259,0,0,0,.848-.326c.2.13.391.065.457-.391l.261.261a.6.6,0,0,1,.783-.2c.2.13.652-.065.652-.326l.587.2v.2a3.175,3.175,0,0,1-.457.2.724.724,0,0,0,.718.261,3.15,3.15,0,0,1,.782,0h.391l-.2.391-.391-.2c.065.065.065.13.13.2.13.2.326.326.457.522.13.261.326.2.522.13.261-.065.261-.261.261-.456s.065-.391.065-.587h.2l.2.391a5.723,5.723,0,0,1,.326.979c.13.391.261.848.391,1.3h-.2l-.2-.2h-.2a9.718,9.718,0,0,1,.065,3.066v-.522h-.2l.391,2.544a5.59,5.59,0,0,0,.2,1.109,8.383,8.383,0,0,0,.718,1.3c.2.326.456.587.652.913l-.2.2c-.13-.2-.2-.391-.326-.587a5.121,5.121,0,0,1-1.24-3.458c0-1.174-.2-2.349-.261-3.523-.065-.718-.261-1.435-.391-2.153-.261.2-.261.2-.261.522q.1,1.076.2,2.153a1.766,1.766,0,0,0,.2.978,3.046,3.046,0,0,1,.2,1.109c.13.848.261,1.7.326,2.545a3.293,3.293,0,0,0,.587,1.5,3.651,3.651,0,0,0,.652.978c.13.2.261.391.522.391.065,0,.13.065.2.13a1.369,1.369,0,0,0,.261.391.411.411,0,0,0-.2-.587.392.392,0,0,1-.065-.261c.065,0,.2,0,.2.065.261.391.652.391,1.044.457h.391v.2c-.261,0-.522.065-.783.065s-.457,0-.391.326h.261a.9.9,0,0,0-.261.2l.587.587v.2Zm-19.18,1.435c.326,0,.391-.261.652-.456-.457,0-.522.065-.717.391Zm1.109-5.284.391-.783a.556.556,0,0,0-.326.783Zm5.48-3.393a24.256,24.256,0,0,1,3.327-3,9.016,9.016,0,0,0-3.262,3Zm1.174-7.372-.587.978a2.189,2.189,0,0,0,.652-1.044H269Zm.587-1.631-.2.587c-.2-.326.065-.457.13-.652Zm.913,7.111-.783.587.783-.587m.261-2.414a8.7,8.7,0,0,0,.913-.717v-.2l-1.174.783c.065,0,.2.065.261,0Zm0,.2.587-.391v-.065l-.587.391Zm3.98-.587a1.269,1.269,0,0,1,.065-.456,7.974,7.974,0,0,0-2.675,1.631.239.239,0,0,0,.2-.065l1.174-.782a2.335,2.335,0,0,1,.718-.261l.391-.2Zm-2.544-.456,1.174-.587-.783.2-.391.391m1.631-.913v.2h.391v-.261a3.171,3.171,0,0,0-.457.2Zm3.2,9.916h.2a2.2,2.2,0,0,0-.522-1.109l.391,1.174Zm1.109,1.5c-.261-.326-.457-.652-.718-1.044.065.587.326.978.718,1.044m.326-2.74-.2-1.174h.2l.2,1.174Zm1.37,3.132h-.2l-.391-.391.2-.2.391.391Zm2.349,1.37a.392.392,0,0,1-.065.261.783.783,0,0,1-.326.326c-.13.065-.326.065-.522.13.13.326-.2.326-.391.326-.391.065-.457-.326-.652-.522.065.065.13.13.2.13a.391.391,0,0,0,.261-.065c.326-.326.848-.326,1.174-.587.065-.065.2,0,.261,0Zm-.13,1.044a2.83,2.83,0,0,1,.391-.457c-.13.13-.065.457-.522.391Zm1.043-1.957-.2.978-.391-.2c-.065-.391.2-.652.456-.913Z" transform="translate(-152.339 -55.925)" fill="#7667b2"/>
    <path id="Path_11220" data-name="Path 11220" d="M127.959,163.969c-.111-.044-.155-.027-.133.05s-.012.094-.1.049a3.9,3.9,0,0,0-.249-1.04,4.98,4.98,0,0,1-.282-.975c.066-.022.094.012.083.1s.038.11.149.066c-.022-.11-.066-.165-.133-.165s-.066-.055,0-.165a.741.741,0,0,0-.1.165,8.333,8.333,0,0,0-.631-1.255,3.859,3.859,0,0,0-1.294-1.222c-.111-.066-.321-.176-.63-.331s-.642-.308-1-.462-.681-.281-.979-.38-.481-.116-.548-.05c.022-.022.028.017.017.116s-.028.21-.049.331-.045.28-.066.479a6.757,6.757,0,0,0,.033,1.123q.065.727.116,1.487a9.671,9.671,0,0,1,0,1.387q-.05.628-.316.792c0,.066.027.077.083.033s.105-.033.15.033a1.182,1.182,0,0,1-.2.248c-.045.033-.078.028-.1-.017a.977.977,0,0,1-.067-.215,2.172,2.172,0,0,0-.1-.314.808.808,0,0,0,0,.562,3.342,3.342,0,0,1,.166.5,8.993,8.993,0,0,1-.4-1.057q-.2-.627-.381-1.338t-.3-1.42a12.3,12.3,0,0,1-.15-1.338,2.754,2.754,0,0,1,.083-.892.831.831,0,0,0-.083-.727,1.275,1.275,0,0,0-.68-.347q-.482-.116-1-.2t-.947-.181c-.287-.066-.442-.176-.464-.331-.022-.087.122-.181.431-.28s.658-.2,1.046-.3.9-.215,1.544-.347a1.051,1.051,0,0,0,.083-.446,6.061,6.061,0,0,0-.017-.76q-.034-.413-.066-.776t-.034-.5a7.068,7.068,0,0,1-.017-.958q.017-.76.1-1.6t.183-1.553a2.233,2.233,0,0,1,.232-.875.719.719,0,0,1,.531-.248,2.129,2.129,0,0,1,.647.066,1.66,1.66,0,0,1,.548.248.59.59,0,0,1,.266.33,2.5,2.5,0,0,1-.016.628q-.05.4-.149.859t-.2.892q-.1.429-.167.693a6.07,6.07,0,0,0-.1.925q-.034.628-.067,1.255t-.066,1.09q-.034.463-.066.4a.3.3,0,0,0,.232.116.684.684,0,0,0,.332-.05,1.467,1.467,0,0,0,.365-.132,6.95,6.95,0,0,1,.846-.017q.481.017.946.049t.879.083a5.9,5.9,0,0,0,.647.049,2.111,2.111,0,0,1,.382.05,3.852,3.852,0,0,0,.531.066q.281.017.5.033a.637.637,0,0,0,.282-.017.827.827,0,0,0,.066-.446c0-.253-.006-.523-.017-.809s-.049-.661-.116-1.123a3.085,3.085,0,0,1-.1-.908q0-.611.05-1.3t.1-1.371q.05-.677.083-1.173a1.159,1.159,0,0,1,.249-.66,1.253,1.253,0,0,1,.5-.38.834.834,0,0,1,.564-.033.878.878,0,0,1,.481.38,1.431,1.431,0,0,1,.133.693c0,.309-.012.628-.033.958s-.055.639-.1.925a4.67,4.67,0,0,0-.066.561q-.1,1.09-.116,1.916t-.033,1.6q-.017.777-.033,1.619t-.083,1.965q-.066.892-.066,2t.033,2.279q.032,1.172.1,2.3t.166,2.015q.066.528.149,1.024t-.149.628q-.6.363-.9-.049a2.939,2.939,0,0,1-.448-1.107,10.166,10.166,0,0,1-.2-1.47,7.027,7.027,0,0,0-.149-1.173,1.2,1.2,0,0,0-.1-.215l-.133-.232a.482.482,0,0,1-.066-.248.285.285,0,0,1,.133-.231m.166-6.969a.413.413,0,0,1,.083-.33q.116-.165-.149-.595c.022.044-.1.072-.366.082s-.609.017-1.029.017-.879.006-1.378.017-.968.028-1.41.05-.825.055-1.145.1-.5.111-.548.2a1,1,0,0,0-.216.908,1.215,1.215,0,0,0,.5.562,2.879,2.879,0,0,0,.78.33q.431.116.7.182a6.049,6.049,0,0,1,3,1.784,6.95,6.95,0,0,1,1.344,2.907,13.872,13.872,0,0,1-.116-3.121,16.834,16.834,0,0,0-.049-3.089" transform="translate(-68.809 -86.577)" fill="#599916"/>
    <path id="Path_11221" data-name="Path 11221" d="M149.269,170a1.08,1.08,0,0,1,.332-.694,2.075,2.075,0,0,1,.73-.462,2.357,2.357,0,0,1,.93-.149,1.7,1.7,0,0,1,.9.281,1.9,1.9,0,0,1,.564,1.553,2.685,2.685,0,0,1-.664,1.321,7.4,7.4,0,0,1-1.2,1.074,8.577,8.577,0,0,0-1,.809,1.377,1.377,0,0,0,0,.611,6.947,6.947,0,0,0,.182.776,2.931,2.931,0,0,0,.282.677c.111.188.221.292.332.314a1.779,1.779,0,0,0,1.228-.281,5.711,5.711,0,0,0,1.228-1.024,12.932,12.932,0,0,0,1.128-1.4q.531-.759.93-1.42c-.045-.066-.062-.077-.05-.033a.553.553,0,0,0,.083.165.715.715,0,0,0,.15.165q.083.067.183-.033a9.6,9.6,0,0,1-.7,1.486,8.835,8.835,0,0,1-1.1,1.536,6.067,6.067,0,0,1-1.394,1.172,2.444,2.444,0,0,1-1.593.363,2.157,2.157,0,0,1-1.543-.842,4.263,4.263,0,0,1-.8-1.784,6.447,6.447,0,0,1-.066-2.164,5.252,5.252,0,0,1,.681-2.015c.088,0,.138-.011.149-.033s.039-.011.083.033m.6,3.4q.331-.329.713-.793a6.314,6.314,0,0,0,.664-.974,3.178,3.178,0,0,0,.365-1.073,2.1,2.1,0,0,0-.149-1.123,3.389,3.389,0,0,0-.8.793,4.492,4.492,0,0,0-.581,1.057,5.227,5.227,0,0,0-.3,1.123,1.923,1.923,0,0,0,.083.991" transform="translate(-86.867 -98.814)" fill="#599916"/>
    <path id="Path_11222" data-name="Path 11222" d="M169.252,169.459a9,9,0,0,0-1.2.38,4.923,4.923,0,0,0-.979.529,4.226,4.226,0,0,0-.83.776,9.376,9.376,0,0,0-.78,1.123,4.843,4.843,0,0,0-.564,1.47,15.5,15.5,0,0,0-.3,1.833q-.1.958-.166,1.866t-.1,1.6a2.627,2.627,0,0,1-1.062-1.6,13.168,13.168,0,0,1-.4-2.46q-.1-1.355-.066-2.709a19.13,19.13,0,0,0-.066-2.345,1.417,1.417,0,0,1,.813.331,1.447,1.447,0,0,1,.4.66,4.077,4.077,0,0,1,.149.843,7.538,7.538,0,0,0,.1.809,5.557,5.557,0,0,1,2.274-2.527,4.144,4.144,0,0,1,2.772-.578" transform="translate(-95.332 -99.234)" fill="#599916"/>
    <path id="Path_11223" data-name="Path 11223" d="M177.77,157.981q.2-.76.432-1.767a7.492,7.492,0,0,1,.681-1.85,3.637,3.637,0,0,1,1.145-1.321,2.294,2.294,0,0,1,1.859-.215,1.92,1.92,0,0,1,1.294.908,3.241,3.241,0,0,1,.365,2c.133.045.293.094.481.149a1.4,1.4,0,0,0,.647.017,2.367,2.367,0,0,0,.813-.347,4.734,4.734,0,0,0,1.012-.942,3.032,3.032,0,0,1-1.112,1.784,4.24,4.24,0,0,1-2.141.562,4.075,4.075,0,0,0-.514,1.14,7.122,7.122,0,0,1-.548,1.321,2.388,2.388,0,0,1-.847.925,1.627,1.627,0,0,1-1.444-.049q-.5-.2-.547-.529a1.11,1.11,0,0,1,.182-.727,3.492,3.492,0,0,1,.664-.793q.431-.4.846-.76t.747-.628a2.386,2.386,0,0,0,.4-.363,1.725,1.725,0,0,0,.166-.71,6.209,6.209,0,0,0-.017-1.007,4.5,4.5,0,0,0-.182-.942q-.133-.413-.332-.479a.967.967,0,0,0-1.062.182,3.6,3.6,0,0,0-.813,1.123,8.714,8.714,0,0,0-.581,1.569q-.232.859-.365,1.453a13.91,13.91,0,0,0-.232,1.734q-.066.908-.1,1.833a2.527,2.527,0,0,1-.066.578.882.882,0,0,1-.216.429.416.416,0,0,1-.4.1,1.337,1.337,0,0,1-.581-.347,13.283,13.283,0,0,1-.863-2.94,15.613,15.613,0,0,1-.216-2.708,16.7,16.7,0,0,1,.216-2.494q.2-1.205.432-2.362a22.538,22.538,0,0,1,.514-2.576q.349-1.354.8-2.692t.963-2.626q.514-1.289,1.079-2.378.331-.66.78-1.552a4.1,4.1,0,0,1,1.012-1.355,1.172,1.172,0,0,1,.614-.281,1.876,1.876,0,0,1,.7.033,1.84,1.84,0,0,1,.614.264.775.775,0,0,1,.332.413,3.161,3.161,0,0,1,.05,1.486,10.68,10.68,0,0,1-.448,1.668q-.3.843-.647,1.586a12.042,12.042,0,0,0-.514,1.239,17.277,17.277,0,0,1-1.46,3.039q-.93,1.553-1.76,2.907-.465.761-.879,1.519a9.612,9.612,0,0,0-.7,1.618,8.107,8.107,0,0,0-.365,1.883,9.651,9.651,0,0,0,.116,2.279m5.709-17.572q.165-.4.249-.661a1.761,1.761,0,0,0,.083-.529.388.388,0,0,0-.166-.363c-.089-.066-.2-.038-.348.082a3.679,3.679,0,0,0-.415.413,4.235,4.235,0,0,0-.3.38q-.1.149,0-.016a29.519,29.519,0,0,0-2.7,5.351,28.146,28.146,0,0,0-1.643,6.078q1.56-2.478,2.987-5.2a30.664,30.664,0,0,0,2.257-5.533" transform="translate(-103.286 -80.853)" fill="#599916"/>
    <path id="Path_11224" data-name="Path 11224" d="M208.294,170.891c.088.044.216.1.382.182s.171.171.017.28q-.432.793-.83,1.437t-.8,1.239q-.4.594-.813,1.205t-.88,1.3a.463.463,0,0,1-.365.2,1.837,1.837,0,0,1-.548-.017,4.456,4.456,0,0,1-.548-.132,2.777,2.777,0,0,1-.4-.149,4.408,4.408,0,0,1-.332-.941,10.923,10.923,0,0,1-.215-1.173,9.4,9.4,0,0,1-.083-1.239,9.155,9.155,0,0,1,.066-1.14q-.465.99-.929,1.8a2.3,2.3,0,0,1-1.527,1.073,1.423,1.423,0,0,1-1.212-.116,1.843,1.843,0,0,1-.664-.875,3.427,3.427,0,0,1-.215-1.239,4.367,4.367,0,0,1,.166-1.239,5.358,5.358,0,0,1,.83-1.734,5.556,5.556,0,0,1,1.228-1.255,3.047,3.047,0,0,1,1.328-.578,1.443,1.443,0,0,1,1.162.3,1.237,1.237,0,0,0-1.046.231,4.042,4.042,0,0,0-.963,1.007,7.719,7.719,0,0,0-.78,1.437,7.52,7.52,0,0,0-.465,1.486,3.5,3.5,0,0,0-.05,1.206q.083.513.481.578a.964.964,0,0,0,.73-.182,2.645,2.645,0,0,0,.681-.71,5.482,5.482,0,0,0,.564-1.107,7.564,7.564,0,0,0,.382-1.371,17.066,17.066,0,0,0,.7-3.766,1.865,1.865,0,0,1,1.228.248,1.013,1.013,0,0,1,.348.777,4.094,4.094,0,0,1-.149,1.14,12.317,12.317,0,0,0-.266,1.338l-.066.43h.033q-.034,1.355-.083,2.428a6.208,6.208,0,0,0,.349,2.263q.531-.595.929-1.074t.78-.974q.382-.5.814-1.09t1.029-1.486" transform="translate(-116.219 -97.76)" fill="#599916"/>
    <path id="Path_11225" data-name="Path 11225" d="M222.61,151.382a9.827,9.827,0,0,0-.465.991,5.479,5.479,0,0,0-.3,1.024q.033.5.067,1.04T222,155.51a9.169,9.169,0,0,0,.149,1.007,2.5,2.5,0,0,0,.332.843,1.429,1.429,0,0,0,.714-.479,7.791,7.791,0,0,0,.763-.991,13.476,13.476,0,0,0,.73-1.255q.349-.677.614-1.239l.166.165a.1.1,0,0,1,.033.066.417.417,0,0,0,.017.1,1.662,1.662,0,0,0,.116.264,14.074,14.074,0,0,1-.581,1.354,9.976,9.976,0,0,1-.879,1.487A7.877,7.877,0,0,1,223.158,158a1.072,1.072,0,0,1-.946.38,1.394,1.394,0,0,1-1.062-.892,7.438,7.438,0,0,1-.5-1.751,9.268,9.268,0,0,1-.116-1.14q-.016-.511-.017-.974t.017-.958q.017-.5.017-1.09a25.5,25.5,0,0,1,.216-2.61q.182-1.387.465-2.775t.664-2.725q.382-1.338.78-2.494.266-.693.614-1.618a4.32,4.32,0,0,1,.847-1.454,1.186,1.186,0,0,1,.581-.363,1.674,1.674,0,0,1,.7-.05,1.929,1.929,0,0,1,.63.2.8.8,0,0,1,.382.38,4.86,4.86,0,0,1,.2.892,1.143,1.143,0,0,1,.033.462v.033a1.559,1.559,0,0,1-.016.215,1.441,1.441,0,0,0-.017.215l-.066-.033q-.133.562-.249,1.024a1.186,1.186,0,0,0-.05.628.2.2,0,0,1-.116-.033c-.034-.022-.062-.011-.083.033a2.611,2.611,0,0,1,.066.677q0,.445-.232.578a.756.756,0,0,0,.067-.264,2.82,2.82,0,0,1,.066-.429h-.2v.4a.894.894,0,0,1-.033.248.2.2,0,0,1-.133.149c-.045.111-.022.149.066.116s.11.006.066.116a.2.2,0,0,0-.183.182.487.487,0,0,0,.05.281c-.045,0-.072-.027-.083-.083s-.061-.071-.15-.049a.211.211,0,0,0,.1.1c.044.022.011.033-.1.033,0,.111.034.121.1.033s.088-.077.066.033q.033.132-.05.149a.156.156,0,0,1-.15-.05c-.044.066-.033.111.033.132s.111.012.133-.033a.73.73,0,0,1-.149.4c-.078.089-.083.254-.017.5a.156.156,0,0,1-.149.049c-.055-.011-.083.006-.083.05q.2.066.066.182a.436.436,0,0,0-.133.347l.1-.1a1.558,1.558,0,0,0-.083.248.094.094,0,0,0,.05.116c-.045.022-.067.05-.067.082s-.045.061-.133.083a.13.13,0,0,0,.133.1c.067,0,.088.044.067.132q-.2.067-.2-.1a.152.152,0,0,0-.1.165h.1c.022.176,0,.286-.067.331s-.077.143-.033.3l-.066.033h-.033a2.689,2.689,0,0,1-.116.578.67.67,0,0,1-.315.38.45.45,0,0,1,.1.149.718.718,0,0,1,.033.248c.066,0,.083-.038.05-.116s0-.093.116-.049a1.968,1.968,0,0,1-.266.528,1.982,1.982,0,0,0-.266.529c-.066.045-.1.022-.1-.066a.168.168,0,0,1-.15.116c-.078.012-.105.072-.083.181.088.045.133.022.133-.066s.055-.121.166-.1c0,.066-.078.16-.232.28s-.2.237-.133.347a1.616,1.616,0,0,0-.5.628q-.3.529-.631,1.09Zm-.233-1.586a15.3,15.3,0,0,0,.946-2q.514-1.271,1-2.709t.88-2.874q.4-1.437.6-2.494h-.033c.022-.066.05-.165.083-.3a2.588,2.588,0,0,0,.067-.446,1.435,1.435,0,0,0-.034-.446.514.514,0,0,0-.182-.3c-.067-.043-.155-.016-.266.083a2.422,2.422,0,0,0-.315.347,4.164,4.164,0,0,0-.266.4.951.951,0,0,0-.116.231,24.64,24.64,0,0,0-1.145,2.676q-.515,1.421-.913,2.924a27.759,27.759,0,0,0-.63,3.088,25.093,25.093,0,0,0-.266,3.105Zm2.456-3.7a.094.094,0,0,1-.066-.033c0,.066.022.077.066.033" transform="translate(-129.174 -80.529)" fill="#599916"/>
    <path id="Path_11226" data-name="Path 11226" d="M262.148,23.2c-.075,0-.147,0-.218,0v0Z" transform="translate(-153.431 -13.588)" fill="#9f1c20"/>
    <path id="Path_11227" data-name="Path 11227" d="M173.558,43.011c2.845,2.386,8.106,3.825,10.172,7.809q-1.287-13.1-18.013-9.144c6.845,1.738,7.714,14.389,17.049,10.893-1.409-4.45-6.007-6.1-9.208-9.558" transform="translate(-97.072 -23.875)" fill="#599916" fill-rule="evenodd"/>
    <path id="Path_11228" data-name="Path 11228" d="M219.982,36.755c-4.631,5.343-5.245,9.4-11.707,10.813q19.144,3.179,19.9-22.17c-5.093,9.085-23.434,5.5-22.037,20.137,6.88-.314,6.365-3.08,11.352-7Z" transform="translate(-120.705 -14.877)" fill="#85d934" fill-rule="evenodd"/>
  </g>
</svg>
